<svg id="visual" viewBox="0 0 960 540" width="960" height="540" xmlns="http://www.w3.org/2000/svg" xmlns:xlink="http://www.w3.org/1999/xlink" version="1.1"><rect x="0" y="0" width="960" height="540" fill="#473c61"></rect><defs><linearGradient id="grad1_0" x1="43.8%" y1="0%" x2="100%" y2="100%"><stop offset="14.444444444444446%" stop-color="#473c61" stop-opacity="1"></stop><stop offset="85.55555555555554%" stop-color="#473c61" stop-opacity="1"></stop></linearGradient></defs><defs><linearGradient id="grad2_0" x1="0%" y1="0%" x2="56.3%" y2="100%"><stop offset="14.444444444444446%" stop-color="#473c61" stop-opacity="1"></stop><stop offset="85.55555555555554%" stop-color="#473c61" stop-opacity="1"></stop></linearGradient></defs><g transform="translate(960, 0)"><path d="M0 378C-9.7 305.7 -19.4 233.4 -24 197.5C-28.6 161.7 -28.1 162.5 -51 206.8C-73.8 251.2 -120 339.1 -124.1 327.3C-128.2 315.4 -90.4 203.7 -99.9 190.4C-109.5 177 -166.5 262 -206.2 298.7C-245.9 335.5 -268.4 324 -250.7 282.9C-232.9 241.8 -174.9 171.1 -160.2 141.9C-145.5 112.8 -174.2 125.2 -172.8 119.3C-171.5 113.4 -140.1 89 -178 93.4C-215.9 97.8 -323 131 -334.7 126.9C-346.5 122.9 -262.9 81.5 -256.3 63.2C-249.8 44.9 -320.3 49.6 -353.4 42.9C-386.5 36.2 -382.3 18.1 -378 0L0 0Z" fill="#cff500"></path></g><g transform="translate(0, 540)"><path d="M0 -378C12.3 -350 24.7 -322 37.7 -310.7C50.8 -299.5 64.5 -304.9 71.6 -290.3C78.6 -275.7 78.9 -241 90.1 -237.5C101.2 -234 123.3 -261.8 148.7 -283.3C174.1 -304.9 202.9 -320.2 214.7 -311.1C226.5 -302 221.3 -268.4 209.5 -236.5C197.8 -204.7 179.7 -174.5 190.1 -168.4C200.6 -162.3 239.6 -180.3 265 -182.9C290.4 -185.6 302.1 -173 298.4 -156.6C294.7 -140.2 275.7 -120.1 286.1 -108.5C296.5 -97 336.2 -94 334 -82.3C331.8 -70.6 287.6 -50.1 287.9 -35C288.2 -19.8 333.1 -9.9 378 0L0 0Z" fill="#cff500"></path></g></svg>