<svg width="765" height="375" viewBox="0 0 765 375" fill="none" xmlns="http://www.w3.org/2000/svg">
<path d="M758.867 177.888L759.512 181.397C759.139 188.031 750.7 195.026 745.801 198.082C676.163 234.094 531.256 308.678 508.736 318.917C486.216 329.156 466.942 322.021 460.121 317.174L321.994 207.329C308.28 201.309 305.401 195.127 304.424 190.731C305.552 195.947 307.655 206.101 308.852 214.828C310.049 223.555 315.669 229.165 319.356 231.707C361.307 264.499 449.184 332.91 465.091 344.222C480.997 355.533 504.068 349.768 513.616 345.472C582.555 310.266 724.919 237.709 742.863 229.124C760.807 220.54 764.383 209.749 763.927 205.427L759.512 181.397C759.578 180.207 759.386 179.03 758.867 177.888Z" fill="white"/>
<path d="M759.512 181.397L758.867 177.888C759.386 179.03 759.578 180.207 759.512 181.397ZM759.512 181.397C759.139 188.031 750.7 195.026 745.801 198.082C676.163 234.094 531.256 308.678 508.736 318.917C486.216 329.156 466.942 322.021 460.121 317.174L321.994 207.329C308.28 201.309 305.401 195.127 304.424 190.731C305.552 195.947 307.655 206.101 308.852 214.828C310.049 223.555 315.669 229.165 319.356 231.707C361.307 264.499 449.184 332.91 465.091 344.222C480.997 355.533 504.068 349.768 513.616 345.472C582.555 310.266 724.919 237.709 742.863 229.124C760.807 220.54 764.383 209.749 763.927 205.427L759.512 181.397Z" stroke="black" stroke-width="2"/>
<path d="M588.859 42.3816L752.419 168.905C766.642 179.907 756.266 193.528 749.3 198.964C676.832 236.174 527.15 312.991 508.171 322.579C489.191 332.167 469.043 324.516 461.341 319.491C412.422 282.897 312.977 207.054 306.553 196.44C300.129 185.826 312.011 173.577 316.658 171.198L460.34 95.4839L588.859 42.3816Z" fill="white" stroke="black" stroke-width="2"/>
<path d="M529.935 216.016L580.501 256.036C588.425 262.307 582.418 267.715 578.425 269.636C558.259 279.78 514.766 301.668 502.113 308.06C489.459 314.452 479.19 310.578 475.637 307.842C463.59 298.532 437.112 278.013 427.581 270.41C418.05 262.808 426.004 256.296 431.172 253.991C451.204 244.04 494.117 222.496 505.517 215.928C516.918 209.359 526.546 213.25 529.935 216.016Z" stroke="#C2C8CF" stroke-width="2"/>
<path d="M491.699 265.237C496.524 262.723 494.565 259.626 492.983 258.392C486.757 261.4 473.002 268.062 467.783 270.648C462.564 273.234 457.887 272.128 456.201 271.251L439.902 260.012C438.762 262.662 440.477 264.99 441.478 265.823C444.285 268.188 451.063 273.721 455.72 276.932C460.377 280.143 465.562 278.851 467.573 277.804L491.699 265.237Z" fill="black" stroke="black" stroke-width="2"/>
<path d="M484.089 237.658C486.418 239.264 486.33 240.636 485.795 241.412C479.66 244.912 466.559 252.369 463.235 254.2C459.911 256.031 456.424 254.943 455.095 254.171C450.706 250.571 441.56 243.033 440.09 241.677C438.621 240.32 440.695 238.515 441.916 237.782C445.64 235.912 454.459 231.171 460.503 228.267C465.641 225.797 467.027 225.034 469.847 226.55C473.624 229.584 481.761 236.053 484.089 237.658Z" fill="#CEF602" stroke="black" stroke-width="2"/>
<path d="M671.603 116.651L651.479 92.8965L451.708 93.0027C448.962 99.2687 442.855 113.44 440.399 119.992C437.943 126.543 440.882 130.918 442.658 132.286C465.067 150.028 512.195 187.02 521.437 193.049C530.679 199.078 543.801 194.87 549.207 192.013C584.236 174.222 656.723 137.483 666.446 132.85C676.168 128.216 673.935 120.12 671.603 116.651Z" fill="white" stroke="black" stroke-width="2"/>
<path d="M668.821 116.145L648.024 91.498L533.747 155.709L537.806 193.599C540.238 193.559 544.6 191.842 546.477 190.989C584.961 171.717 658.285 135.163 666.434 130.818C674.583 126.474 671.421 119.226 668.821 116.145Z" fill="#D9D9D9" stroke="white" stroke-width="2"/>
<path d="M460.46 85.294L518.095 55.8933C527.686 50.9112 549.28 39.6904 558.931 34.6635C568.581 29.6366 578.601 31.0488 583.038 35.8257C601.087 50.1325 639.318 80.3879 647.846 86.9549C656.373 93.5218 648.409 101.086 643.361 104.047C617.984 117.183 563.396 145.278 548.061 152.57C532.726 159.861 520.769 154.365 516.708 150.706C498.3 136.295 459.899 106.037 453.556 100.289C447.213 94.5408 455.515 87.8971 460.46 85.294Z" fill="white" stroke="black" stroke-width="2"/>
<path d="M638.05 86.2134L579.334 40.5735C572.421 36.1502 563.246 38.785 559.523 40.6553C535.799 52.6405 484.989 78.2449 471.549 84.7816C458.11 91.3182 460.424 98.0099 463.261 100.539C479.086 112.882 513.001 139.389 522.067 146.671C531.132 153.952 544.09 149.402 549.435 146.217C572.996 134.262 623.083 108.79 634.95 102.543C646.816 96.2949 641.961 89.0534 638.05 86.2134Z" fill="black" stroke="#AAAFB5" stroke-width="2"/>
<path d="M585.22 103.038L568.067 89.9219L554.649 88.8291C547.008 92.436 530.699 100.144 526.589 102.12C522.478 104.095 523.812 108.222 524.994 110.038C529.293 113.146 538.975 120.28 543.311 123.957C547.647 127.634 552.691 126.131 554.672 124.92C562.088 121.015 578.226 112.559 583.444 109.974C588.663 107.388 586.803 104.273 585.22 103.038Z" fill="#737375" stroke="#737375" stroke-width="2"/>
<path d="M556.217 113.96C566.445 112.081 569.946 105.676 570.417 102.709L567.887 88.939L565.085 73.6943L535.851 80.5915L540.911 108.131C541.751 110.857 545.988 115.84 556.217 113.96Z" fill="black"/>
<path d="M573.002 50.3799L624.641 90.7113C627.776 93.0162 631.338 98.9362 620.507 104.18C609.677 109.424 568.874 130.275 549.826 140.045C545.775 141.976 536.141 144.695 530.014 140.127C523.888 135.559 494.588 112.406 480.703 101.401C478.345 99.6322 476.04 94.8362 485.69 89.8091C495.341 84.7822 514.761 74.6388 523.264 70.1954M570.835 63.4874L611.725 95.1182C613.592 96.9782 615.923 101.362 610.311 104.02C604.699 106.678 568.686 125.565 551.381 134.675C548.313 136.425 540.996 139.024 536.267 135.419C531.537 131.815 507.364 112.77 495.868 103.698C494.062 102.166 492.486 98.0162 500.635 93.6722C508.784 89.3276 524.791 81.2685 531.776 77.7821M565.085 73.6947C574.52 80.7728 594.455 95.7502 598.719 99.0332C602.982 102.317 599.164 106.068 596.722 107.534C585.583 113.309 561.426 125.712 553.92 129.125C546.413 132.538 540.535 130.06 538.534 128.394C531.592 122.891 516.525 110.985 511.796 107.38C507.067 103.776 510.829 100.271 513.301 98.9702L536.042 87.1656M565.085 73.6947L567.887 88.9394L570.417 102.709C569.946 105.676 566.445 112.081 556.217 113.96C545.988 115.84 541.751 110.857 540.911 108.131L535.851 80.5919L565.085 73.6947Z" stroke="#727374" stroke-width="2"/>
<path d="M550.832 81.905C535.895 84.6499 521.56 74.7657 518.815 59.8279C516.07 44.8902 525.955 30.5556 540.892 27.8107C555.83 25.0658 570.165 34.95 572.91 49.8877C575.654 64.8255 565.77 79.1601 550.832 81.905Z" fill="white" stroke="black" stroke-width="2"/>
<path d="M523.044 46.8504C529.417 30.6314 544.389 30.2188 552.308 31.8138C553.02 31.9572 555.516 32.668 555.891 34.7141C556.342 37.1732 551.604 39.0605 548.344 40.6762C546.945 41.3699 534.95 55.3615 535.098 59.8866C535.428 69.9934 531.958 70.4616 529.529 71.0774C527.159 72.0213 516.67 63.0694 523.044 46.8504Z" fill="black" stroke="black" stroke-width="0.5"/>
<path d="M524.826 45.5057C526.785 40.6721 529.482 40.4136 530.586 40.8885C531.302 41.0959 532.245 42.7189 530.286 47.5525C527.757 53.7109 525.124 53.5847 524.124 52.7518C523.542 52.3504 522.867 50.3393 524.826 45.5057Z" fill="white" stroke="white" stroke-width="0.5"/>
<path d="M724.206 191.228L654.183 225.375L652.277 217.665C670.207 208.27 706.18 189.965 715.654 186.191C725.128 182.416 729.34 188.759 724.206 191.228Z" fill="#D2F201"/>
<path d="M711.084 182.482C715.909 179.969 721.947 179.808 724.362 180.042C729.575 182.784 729.459 186.297 728.396 188.452C724.837 182.599 716.302 185.252 712.48 187.31L652.656 218.637L651.572 212.736C669.399 203.699 706.259 184.996 711.084 182.482Z" fill="black"/>
<path d="M655.086 226.325L727.645 189.607C727.91 189.294 728.173 188.903 728.396 188.452M728.396 188.452C729.459 186.297 729.575 182.784 724.362 180.042C721.947 179.808 715.909 179.969 711.084 182.482C706.259 184.996 669.399 203.699 651.572 212.736L652.656 218.637L712.48 187.31C716.302 185.252 724.837 182.599 728.396 188.452Z" stroke="black" stroke-width="2"/>
<path d="M658.985 220.617L657.539 212.749C656.636 207.831 651.711 204.157 642.604 208.933L642.354 209.064C633.493 213.711 617.657 222.015 611.152 225.897C610.357 226.833 609.676 228.432 610.291 230.122L611.999 239.418C613.618 240.646 618.018 243.343 622.273 242.154C626.528 240.966 630.362 239.143 632.239 238.29L657.741 224.912C659.035 223.658 659.347 222.584 658.985 220.617Z" fill="white"/>
<path d="M657.539 212.749L658.985 220.617C659.347 222.584 659.035 223.658 657.741 224.912L632.239 238.29C630.362 239.143 626.528 240.966 622.273 242.154C618.018 243.343 613.618 240.646 611.999 239.418L610.291 230.122M657.539 212.749C656.636 207.831 651.711 204.157 642.604 208.933C633.794 213.553 617.718 221.979 611.152 225.897C610.357 226.833 609.676 228.432 610.291 230.122M657.539 212.749C657.901 214.716 656.322 217.19 653.534 218.617C647.338 221.789 633.464 228.914 627.531 232.038C621.598 235.161 617.579 235.053 616.311 234.608C612.552 233.34 610.862 231.692 610.291 230.122" stroke="black" stroke-width="2"/>
<path d="M658.024 222.345L657.391 218.903C652.835 221.774 639.977 228.712 625.357 235.465C621.021 236.77 617.489 236.911 613.504 234.593L614.137 238.035C614.809 238.929 618.238 240.434 620.67 240.393C623.103 240.353 628.358 237.964 630.235 237.111L648.821 227.595C653.646 225.082 656.966 223.048 658.024 222.345Z" fill="#D9D9D9"/>
<path d="M493.646 253.695L486.198 240.829C485.887 241.903 471.946 249.04 465.022 252.854C459.482 255.906 456.036 254.675 455.006 253.678L440.091 241.676C439.68 244.971 438.689 252.305 438.015 255.275C437.34 258.246 438.604 259.403 439.32 259.611L445.141 263.625C447.469 265.23 452.217 268.933 456.201 271.251C460.113 273.527 464.612 272.756 466.489 271.903C472.55 268.925 485.88 262.341 490.706 259.827C495.531 257.314 494.676 254.692 493.646 253.695Z" fill="#6E8510" stroke="black" stroke-width="2"/>
<path d="M491.699 265.237C496.524 262.723 494.565 259.626 492.983 258.392C486.757 261.4 473.002 268.062 467.783 270.648C462.564 273.234 457.887 272.128 456.201 271.251L439.902 260.012C438.762 262.662 440.477 264.99 441.478 265.823C444.285 268.188 451.063 273.721 455.72 276.932C460.377 280.143 465.562 278.851 467.573 277.804L491.699 265.237Z" fill="black" stroke="black" stroke-width="2"/>
<path d="M484.089 237.658C486.418 239.264 486.33 240.636 485.795 241.412C479.66 244.912 466.559 252.369 463.235 254.2C459.911 256.031 456.424 254.943 455.095 254.171C450.706 250.571 441.56 243.033 440.09 241.677C438.621 240.32 440.695 238.515 441.916 237.782C445.64 235.912 454.459 231.171 460.503 228.267C465.641 225.797 467.027 225.034 469.847 226.55C473.624 229.584 481.761 236.053 484.089 237.658Z" fill="#CEF602" stroke="black" stroke-width="2"/>
<path d="M493.646 253.695L486.198 240.829C485.887 241.903 471.946 249.04 465.022 252.854C459.482 255.906 456.036 254.675 455.006 253.678L440.091 241.676C439.68 244.971 438.689 252.305 438.015 255.275C437.34 258.246 438.604 259.403 439.32 259.611L445.141 263.625C447.469 265.23 452.217 268.933 456.201 271.251C460.113 273.527 464.612 272.756 466.489 271.903C472.55 268.925 485.88 262.341 490.706 259.827C495.531 257.314 494.676 254.692 493.646 253.695Z" fill="#6E8510" stroke="black" stroke-width="2"/>
<path d="M561.088 266.537C565.913 264.023 563.955 260.926 562.372 259.692C556.147 262.7 542.391 269.362 537.173 271.948C531.954 274.534 527.277 273.427 525.591 272.551L509.291 261.312C508.151 263.961 509.867 266.29 510.867 267.123C513.674 269.488 520.453 275.02 525.11 278.232C529.767 281.443 534.952 280.151 536.962 279.104L561.088 266.537Z" fill="black" stroke="black" stroke-width="2"/>
<path d="M553.478 238.958C555.806 240.564 555.719 241.936 555.184 242.712C549.049 246.212 535.947 253.669 532.623 255.5C529.3 257.331 525.812 256.243 524.484 255.47C520.095 251.871 510.948 244.333 509.479 242.976C508.009 241.62 510.084 239.815 511.305 239.082C515.028 237.212 523.848 232.471 529.891 229.566C535.03 227.097 536.415 226.334 539.236 227.849C543.013 230.883 551.149 237.352 553.478 238.958Z" fill="white" stroke="black" stroke-width="2"/>
<path d="M563.035 254.995L555.588 242.129C555.277 243.203 541.336 250.34 534.411 254.154C528.872 257.206 525.426 255.975 524.395 254.978L509.481 242.976C509.069 246.271 508.078 253.604 507.404 256.575C506.73 259.546 507.993 260.703 508.709 260.911L514.531 264.925C516.859 266.53 521.607 270.233 525.591 272.551C529.503 274.827 534.002 274.056 535.878 273.203C541.94 270.225 555.27 263.641 560.095 261.127C564.921 258.614 564.066 255.992 563.035 254.995Z" fill="white" stroke="black" stroke-width="2"/>
<path d="M762.268 206.241L759.286 190.012C756.219 195.456 753.904 199.459 750.184 201.344C674.066 239.902 518.303 319.204 512.225 322.851C504.899 327.248 499.179 329.316 493.588 329.326L496.932 347.521C501.629 348.184 509.761 344.486 512.889 343.064C591.613 303.01 746.784 225.176 750.938 222.049C755.404 218.686 761.385 212.503 762.268 206.241Z" fill="#D9D9D9"/>
<path d="M490.145 329.959L493.398 347.662" stroke="#D9D9D9" stroke-width="2"/>
<path d="M332.086 267.571C333.015 271.189 335.282 273.733 337.15 273.253C339.018 272.774 339.779 269.452 338.85 265.835C337.922 262.217 335.248 259.304 333.38 259.784C331.512 260.263 331.158 263.953 332.086 267.571Z" fill="black"/>
<path d="M309.816 25.1647L315.248 17.1294L318.196 13.8772L317.682 3.4148L303.58 1L295.645 13.431L296.083 22.3433L309.816 25.1647Z" fill="white"/>
<path d="M309.816 25.1647L315.248 17.1294L318.196 13.8772L317.682 3.4148M309.816 25.1647L308.953 15.4964L317.682 3.4148M309.816 25.1647L296.083 22.3433L295.645 13.431L303.58 1L317.682 3.4148" stroke="black" stroke-width="0.775921"/>
<path d="M336.826 266.995C336.363 263.91 333.173 263.808 331.636 264.142L294.582 276.838C280.841 281.785 250.63 294.611 239.709 306.334C228.787 318.057 204.538 336.287 193.779 343.937C186.134 349.103 163.986 360.549 136.549 365.004C109.112 369.459 77.5251 362.724 65.1616 358.799C53.5477 354.32 27.6969 340.985 17.2041 323.477C6.71123 305.969 7.59963 288.731 9.35543 282.301C12.0684 274.269 22.0733 254.952 40.3892 241.934C58.7052 228.915 79.5506 219.424 87.6836 216.305C105.281 210.78 142.62 199.158 151.209 196.871C159.797 194.585 169.064 191.333 172.623 189.993C177.991 188.564 191.605 185.798 203.121 186.165C214.636 186.531 245.194 186.041 259.034 185.749C266.778 185.24 284.381 183.028 292.848 178.262C301.315 173.496 369.273 147.319 402.194 134.826C415.218 128.49 441.45 110.984 441.4 86.6774C441.332 53.6643 400.622 23.4242 369.029 21.0916C347.173 19.4778 326.071 13.7496 318.103 12.3283C316.288 12.2879 312.763 12.7459 313.18 14.9006C313.596 17.0554 315.792 18.0092 316.838 18.2167L373.284 28.6511C385.06 31.0507 412.103 40.495 426.067 59.0752C440.03 77.6554 433.471 99.1078 428.445 107.512C424.547 112.494 412.707 123.978 396.536 130.054C380.365 136.131 320.47 160.592 292.543 172.062C285.29 174.749 268.366 179.853 258.691 178.774C248.344 178.894 226.487 179.191 221.837 179.419C216.025 179.705 180.204 177.968 160.842 187.076L98.4026 204.903C82.7823 211.108 48.6324 225.992 36.9994 235.885C22.458 248.252 5.78213 264.608 1.77233 285.78C-1.43547 302.718 6.12143 318.971 10.3008 324.981C17.5404 335.502 38.7128 358.311 65.4851 365.386C86.0774 373.309 139.137 382.589 186.633 356.329C197.953 349.536 225.025 331.316 242.759 312.788C260.494 294.259 284.938 286.009 294.943 284.2L330.448 271.581C332.766 271.337 337.288 270.079 336.826 266.995Z" fill="white" stroke="black" stroke-width="1.55184"/>
<path d="M362.642 246.692C369.116 251.968 370.751 261.444 369.759 264.988C369.655 265.511 368.731 266.282 365.957 266.729C363.182 267.176 346.586 270.398 338.635 271.954C340.485 265.337 336.688 261.304 334.558 260.114C341.884 256.388 357.068 248.676 359.193 247.639C361.317 246.603 362.377 246.576 362.642 246.692Z" fill="#80858F" stroke="black" stroke-width="1.55184"/>
<path d="M342.494 271.377C342.447 270.42 342.322 269.202 342.092 267.901M342.092 267.901C341.424 264.108 339.875 259.613 336.829 258.837M342.092 267.901L339.261 268.817M346.719 270.392C346.832 269.633 346.868 268.551 346.734 267.284M346.734 267.284C346.408 264.2 345.072 260.014 341.384 256.671M346.734 267.284L351.531 265.573M351.349 269.777C351.544 268.738 351.656 267.257 351.531 265.573M351.531 265.573C351.262 261.95 349.9 257.391 345.928 254.302M356.329 268.367C356.384 267.358 356.355 266.007 356.177 264.49M356.177 264.49C355.692 260.343 354.101 254.959 350.086 251.971M356.177 264.49L360.848 263.484M360.961 267.751C361.06 266.689 361.056 265.2 360.848 263.484M360.848 263.484C360.344 259.31 358.632 253.793 354.254 249.824M365.96 266.728C366.004 265.607 365.954 264.13 365.751 262.479M365.751 262.479C365.155 257.639 363.234 251.305 358.44 248.065M365.751 262.479L369.994 261.869" stroke="black" stroke-width="1.55184"/>
</svg>
