<svg width="732" height="419" viewBox="0 0 732 419" fill="none" xmlns="http://www.w3.org/2000/svg">
<path d="M235.684 104.148L132.184 45.6481C121.784 41.2481 108.184 44.8148 102.685 47.1481C75.5174 62.3148 18.3841 94.4481 7.1841 101.648C-4.01589 108.848 2.51743 117.981 7.1841 121.648C35.6841 138.481 95.3841 173.548 106.185 179.148C116.985 184.748 130.351 181.481 135.685 179.148C161.351 164.648 216.684 133.348 232.684 124.148C248.684 114.948 241.351 106.981 235.684 104.148Z" fill="white" stroke="white" stroke-width="2"/>
<path d="M29.1846 100.648C31.5846 100.248 35.1846 103.814 36.6846 105.648V110.148C33.0179 112.315 25.3846 116.648 24.1846 116.648C22.9846 116.648 18.6846 113.648 16.6846 112.148V107.648C19.8513 105.481 26.7846 101.048 29.1846 100.648Z" fill="#D0F500"/>
<path d="M26.6846 111.648L36.6846 105.648M36.6846 105.648C35.1846 103.814 31.5846 100.248 29.1846 100.648C26.7846 101.048 19.8513 105.481 16.6846 107.648V112.148C18.6846 113.648 22.9846 116.648 24.1846 116.648C25.3846 116.648 33.0179 112.315 36.6846 110.148V105.648Z" stroke="#070707" stroke-width="2"/>
<path d="M162.501 107.194V63.1944C158.901 59.1944 110.668 66.1944 87.001 70.1944L87.501 115.694C90.301 122.494 102.001 128.194 107.501 130.194C118.501 133.694 129.334 130.528 134.001 128.194C136.334 127.028 143.101 123.494 151.501 118.694C159.901 113.894 162.334 109.028 162.501 107.194Z" fill="white" stroke="black" stroke-width="2"/>
<path d="M161.185 108.148V68.4463L128.685 87.6485V130.149C131.685 129.149 137.585 125.848 147.185 120.648C156.785 115.448 159.685 112.648 161.185 108.148Z" fill="#D9D9D9"/>
<path d="M149.685 50.1481C143.244 46.6479 131.185 45.8148 125.685 46.1481C122.185 44.1482 107.685 53.6481 93.6841 62.1481C82.4841 68.9481 87.3508 76.3147 91.1841 79.1481C91.1841 79.4814 93.7841 81.5481 104.185 87.1481C114.585 92.7481 127.185 89.4814 132.185 87.1481C134.685 85.9814 142.985 81.5481 156.185 73.1481C169.385 64.7481 157.351 54.3148 149.685 50.1481Z" fill="white" stroke="black" stroke-width="2"/>
<path d="M129.685 66.1479L126.185 64.1479C125.184 64.1479 122.584 64.4479 120.184 65.6479C117.784 66.8479 118.518 68.4813 119.184 69.1479L121.684 71.1479C124.084 72.7479 126.018 72.1479 126.684 71.6479C126.684 71.6479 127.685 71.1479 129.685 69.6479C131.55 68.2485 130.518 66.8146 129.685 66.1479Z" fill="black" stroke="black" stroke-width="2"/>
<path d="M644.501 414C651.834 410.5 655.774 375.388 675.502 399.5C679.001 404 691.401 412.2 713.001 409C727.502 409 728.783 389.9 725.001 383.5C705.5 350.5 660.999 365.5 609 343.5L279.684 169.148C262.851 156.815 226.484 127.148 215.684 107.148C204.884 87.1483 199.184 72.815 197.684 68.1483C194.851 56.6483 185.284 30.7483 169.684 19.1483C154.084 7.54829 144.184 4.98163 141.184 5.14829C135.684 4.14825 124.684 7.74817 124.684 30.1482C124.684 52.5482 124.684 64.8149 124.684 68.1483" stroke="black" stroke-width="9"/>
<path d="M126.325 90.1479L126.684 130.649" stroke="#D9D9D9" stroke-width="2"/>
</svg>
