<svg width="431" height="783" viewBox="0 0 431 783" fill="none" xmlns="http://www.w3.org/2000/svg">
<path d="M4.18789 26.0127L15.1879 11.5127C154.688 122.846 432.188 349.813 426.188 367.013C420.188 384.213 410.354 388.846 406.188 389.013H112.188C90.5875 388.213 80.5208 368.679 78.1875 359.013C53.521 259.179 3.68789 56.9127 1.68789 46.5127C-0.312111 36.1127 2.52122 28.5127 4.18789 26.0127Z" fill="black" stroke="black" stroke-width="2"/>
<path d="M312.688 1.01246H33.1881C12.7881 1.01246 10.6881 22.0126 12.1881 32.5127C35.1881 126.679 82.5881 320.613 88.1881 343.013C93.7881 365.413 114.855 373.346 124.688 374.513C214.521 374.013 398.088 372.913 413.688 372.513C429.288 372.113 431.188 358.346 430.188 351.513C407.021 257.346 359.088 62.1125 352.688 34.5125C346.288 6.91246 323.355 0.679123 312.688 1.01246Z" fill="#EBE9E9" stroke="black"/>
<path d="M412.189 278.013L72.1886 277.513C54.8552 207.346 18.5899 60.4124 12.1886 34.0127C6.73279 11.5127 21.8552 1.0127 30.6886 1.0127H317.189C336.789 1.0127 348.355 19.346 351.689 28.5127L412.189 278.013Z" fill="black" stroke="black"/>
<path d="M320.686 27.5127H41.6856C37.2856 27.5127 37.1856 31.5127 37.6856 33.5127C54.3523 100.846 87.9856 237.213 89.1856 244.013C90.3856 250.813 93.8504 252.513 95.4328 252.513H376.186C379.386 252.513 379.186 248.513 378.686 246.513C362.019 178.513 328.386 41.0127 327.186 35.0127C325.986 29.0127 322.352 27.5127 320.686 27.5127Z" fill="#D0F500" stroke="#D0F500"/>
<path d="M148.188 26.5127L171.688 3.0127" stroke="#A66CFE" stroke-width="2"/>
<path d="M158.688 2.5127H116.688L92.1875 26.5127H133.688L158.688 2.5127Z" fill="#A66CFE"/>
<path d="M38.6875 132.013L55.6875 115.013" stroke="#A66CFE"/>
<path d="M45.1875 71.5127L27.1875 89.0127L35.1875 122.013L53.6875 104.013L45.1875 71.5127Z" fill="#A66CFE"/>
<path d="M326.688 302.013H379.688C382.188 302.013 388.088 304.713 393.688 309.513C399.287 314.313 401.354 322.513 401.688 326.013C402.088 339.213 394.188 342.846 390.188 343.013H337.188C334.688 343.013 328.087 341.513 321.688 335.513C315.287 329.513 313.355 321.346 313.188 318.013C312.788 305.613 322.022 302.179 326.688 302.013Z" stroke="black"/>
<path d="M208.188 28.0127L263.188 252.013M50.1875 81.5127H337.822" stroke="black" stroke-width="2" stroke-dasharray="6 6"/>
<path d="M83.6875 217.513L80.1875 203.013H109.916C109.086 199.763 108.236 196.549 107.688 194.513C107.188 192.679 107.087 189.013 110.688 189.013H136.098C134.99 183.928 133.924 178.933 133.688 177.513C133.287 175.113 135.521 174.513 136.688 174.513H147.562L145.188 165.013C144.854 163.513 144.988 160.513 148.188 160.513H156.188C157.188 160.513 159.387 161.213 160.188 164.013C160.507 165.132 161.531 169.274 162.804 174.513H174.688C177.088 174.513 178.688 178.513 179.188 180.513L180.688 188.513H195.624C192.952 177.702 188.969 161.094 186.688 151.513C186.354 149.846 186.387 146.513 189.188 146.513H200.151C195.451 127.955 191.152 110.833 190.688 108.513C189.887 104.513 192.021 103.513 193.188 103.513H204.541C203.664 99.9806 202.856 96.7198 202.188 94.0127C201.854 92.5127 201.787 89.5127 204.188 89.5127H216.029C215.068 85.4808 214.122 81.4686 213.688 79.5127C212.887 75.9127 215.354 75.0127 216.688 75.0127H224.688C227.488 75.0127 228.854 78.0127 229.188 79.5127C229.848 82.3543 230.648 85.7947 231.512 89.5127H243.188C244.188 89.5127 246.387 90.6127 247.188 95.0127C247.812 98.4454 252.534 116.912 256.321 131.513H286.313C285.512 128.489 284.725 125.529 284.188 123.513C283.688 121.513 283.587 117.513 287.188 117.513H312.364C311.461 113.613 310.597 109.856 310.188 108.013C309.387 104.413 311.521 103.513 312.688 103.513H323.953C323.073 99.9301 322.19 96.2759 321.688 94.0127C321.354 92.5127 321.387 89.5127 324.188 89.5127H332.188C333.188 89.5127 335.387 90.1127 336.188 92.5127C336.987 94.9127 337.854 97.846 338.188 99.0127C338.688 100.513 338.888 103.513 335.688 103.513H323.953C324.823 107.054 325.69 110.524 326.188 112.513C327.2 116.564 325.688 117.513 324.688 117.513H312.364C313.224 121.228 314.118 125.073 314.688 127.513C315.021 128.846 315.188 131.513 313.188 131.513H286.313C287.497 135.987 288.71 140.603 289.188 142.513C289.988 145.713 287.521 146.513 286.188 146.513H264.188C260.988 146.513 259.521 143.846 259.188 142.513C258.381 139.435 257.388 135.627 256.321 131.513H244.399C243.329 131.513 240.988 130.613 240.188 127.013C239.546 124.126 235.005 104.549 231.512 89.5127H216.029C216.837 92.902 217.655 96.3053 218.188 98.5127C218.688 100.179 218.887 103.513 215.688 103.513H204.541C208.255 118.465 213.217 138.277 214.188 141.513C215.387 145.513 213.021 146.513 211.688 146.513H200.151C203.554 159.951 207.168 174.143 209.688 184.013C210.021 185.513 210.087 188.513 207.688 188.513H195.624C196.856 193.498 197.809 197.25 198.188 198.513C199.387 202.513 197.021 203.513 195.688 203.513H173.688C170.488 203.513 169.021 200.513 168.688 199.013C167.187 192.711 164.714 182.376 162.804 174.513H147.562L149.688 183.013C150.887 187.813 148.521 189.013 147.188 189.013H136.098C136.861 192.517 137.643 196.064 138.188 198.513C138.521 200.013 138.487 203.013 135.688 203.013H109.916C110.852 206.679 111.763 210.392 112.188 212.513C112.987 216.513 111.188 217.513 110.188 217.513H83.6875Z" fill="black"/>
<path d="M109.916 203.013H80.1875L83.6875 217.513H110.188C111.188 217.513 112.987 216.513 112.188 212.513C111.763 210.392 110.852 206.679 109.916 203.013ZM109.916 203.013C109.086 199.763 108.236 196.549 107.688 194.513C107.188 192.679 107.087 189.013 110.688 189.013H136.098M109.916 203.013H135.688C138.487 203.013 138.521 200.013 138.188 198.513C137.643 196.064 136.861 192.517 136.098 189.013M136.098 189.013C134.99 183.928 133.924 178.933 133.688 177.513C133.287 175.113 135.521 174.513 136.688 174.513H147.562M136.098 189.013H147.188C148.521 189.013 150.887 187.813 149.688 183.013L147.562 174.513M147.562 174.513L145.188 165.013C144.854 163.513 144.988 160.513 148.188 160.513H156.188C157.188 160.513 159.387 161.213 160.188 164.013C160.507 165.132 161.531 169.274 162.804 174.513M147.562 174.513H162.804M162.804 174.513H174.688C177.088 174.513 178.688 178.513 179.188 180.513L180.688 188.513H195.624M162.804 174.513C164.714 182.376 167.187 192.711 168.688 199.013C169.021 200.513 170.488 203.513 173.688 203.513H195.688C197.021 203.513 199.387 202.513 198.188 198.513C197.809 197.25 196.856 193.498 195.624 188.513M195.624 188.513C192.952 177.702 188.969 161.094 186.688 151.513C186.354 149.846 186.387 146.513 189.188 146.513H200.151M195.624 188.513H207.688C210.087 188.513 210.021 185.513 209.688 184.013C207.168 174.143 203.554 159.951 200.151 146.513M200.151 146.513C195.451 127.955 191.152 110.833 190.688 108.513C189.887 104.513 192.021 103.513 193.188 103.513H204.541M200.151 146.513H211.688C213.021 146.513 215.387 145.513 214.188 141.513C213.217 138.277 208.255 118.465 204.541 103.513M204.541 103.513C203.664 99.9806 202.856 96.7198 202.188 94.0127C201.854 92.5127 201.787 89.5127 204.188 89.5127H216.029M204.541 103.513H215.688C218.887 103.513 218.688 100.179 218.188 98.5127C217.655 96.3053 216.837 92.902 216.029 89.5127M216.029 89.5127C215.068 85.4808 214.122 81.4686 213.688 79.5127C212.887 75.9127 215.354 75.0127 216.688 75.0127H224.688C227.488 75.0127 228.854 78.0127 229.188 79.5127C229.848 82.3543 230.648 85.7947 231.512 89.5127M216.029 89.5127H231.512M231.512 89.5127H243.188C244.188 89.5127 246.387 90.6127 247.188 95.0127C247.812 98.4454 252.534 116.912 256.321 131.513M231.512 89.5127C235.005 104.549 239.546 124.126 240.188 127.013C240.988 130.613 243.329 131.513 244.399 131.513H256.321M256.321 131.513H286.313M256.321 131.513C257.388 135.627 258.381 139.435 259.188 142.513C259.521 143.846 260.988 146.513 264.188 146.513H286.188C287.521 146.513 289.988 145.713 289.188 142.513C288.71 140.603 287.497 135.987 286.313 131.513M286.313 131.513C285.512 128.489 284.725 125.529 284.188 123.513C283.688 121.513 283.587 117.513 287.188 117.513H312.364M286.313 131.513H313.188C315.188 131.513 315.021 128.846 314.688 127.513C314.118 125.073 313.224 121.228 312.364 117.513M312.364 117.513C311.461 113.613 310.597 109.856 310.188 108.013C309.387 104.413 311.521 103.513 312.688 103.513H323.953M312.364 117.513H324.688C325.688 117.513 327.2 116.564 326.188 112.513C325.69 110.524 324.823 107.054 323.953 103.513M323.953 103.513C323.073 99.9301 322.19 96.2759 321.688 94.0127C321.354 92.5127 321.387 89.5127 324.188 89.5127H332.188C333.188 89.5127 335.387 90.1127 336.188 92.5127C336.987 94.9127 337.854 97.846 338.188 99.0127C338.688 100.513 338.888 103.513 335.688 103.513H323.953Z" stroke="black"/>
<path d="M362.186 319.513C361.786 315.113 364.686 311.346 366.186 310.013L396.188 329.013C396.021 329.346 394.888 331.013 391.688 335.013C388.487 339.013 382.354 338.679 379.688 338.013C377.188 337.513 372.387 335.413 369.188 333.013C365.188 330.013 362.686 325.013 362.186 319.513Z" fill="black" stroke="black"/>
<path d="M394.689 313.513C391.633 308.013 382.022 304.18 378.189 304.013C372.19 303.213 368.023 307.013 366.689 309.013C363.089 315.813 366.522 322.847 368.689 325.513C370.856 328.013 376.989 333.213 384.189 334.013C391.389 334.813 395.522 330.347 396.689 328.013C397.689 326.18 398.689 320.713 394.689 313.513Z" fill="#A66CFE" stroke="black"/>
<path d="M319.225 319.121C318.825 314.721 321.725 310.954 323.225 309.621L353.227 328.621C353.06 328.954 351.927 330.621 348.727 334.621C345.527 338.621 339.393 338.288 336.727 337.621C334.227 337.121 329.427 335.021 326.227 332.621C322.227 329.621 319.725 324.621 319.225 319.121Z" fill="black" stroke="black"/>
<path d="M351.728 313.122C348.672 307.622 339.061 303.788 335.228 303.622C329.229 302.822 325.062 306.622 323.728 308.622C320.128 315.422 323.561 322.455 325.728 325.122C327.895 327.622 334.028 332.822 341.228 333.622C348.428 334.422 352.561 329.955 353.728 327.622C354.728 325.788 355.728 320.322 351.728 313.122Z" fill="white" stroke="black"/>
<path d="M120.189 291.513L117.189 295.513C115.689 297.513 115.896 299.679 116.188 300.513L118.688 310.013H105.689C101.289 310.013 100.522 314.679 100.689 317.013C101.022 319.179 101.889 324.613 102.689 329.013C103.489 333.413 106.022 334.513 107.189 334.513H125.189C125.855 337.346 127.389 344.113 128.189 348.513C128.989 352.913 131.522 354.013 132.689 354.013H145.189C147.589 354.013 149.522 352.346 150.189 351.513C152.189 349.013 153.689 346.513 153.189 345.513L150.189 334.513H163.689C164.022 334.013 165.089 332.513 166.689 330.513C168.289 328.513 168.355 325.346 168.189 324.013L166.189 315.013C165.389 310.613 162.522 309.513 161.189 309.513H144.189C143.355 306.346 141.489 299.013 140.689 295.013C139.889 291.013 138.022 290.013 137.189 290.013H123.189C121.589 290.013 120.522 291.013 120.189 291.513Z" fill="black" stroke="black"/>
<path d="M123.688 310.513L119.688 294.513M104.188 313.513L106.688 325.513C106.854 326.846 107.987 329.513 111.188 329.513C114.388 329.513 123.188 329.513 127.188 329.513C127.854 329.513 129.287 330.313 129.688 333.513C130.088 336.713 131.521 343.179 132.188 346.013C132.521 347.179 133.888 349.513 136.688 349.513C139.487 349.513 146.854 349.513 150.188 349.513M148.188 329.513H165.188" stroke="#B0B0B0" stroke-width="2"/>
<path d="M217.188 304.513C218.293 304.513 219.188 303.617 219.188 302.513C219.188 301.408 218.293 300.513 217.188 300.513C216.084 300.513 215.188 301.408 215.188 302.513C215.188 303.617 216.084 304.513 217.188 304.513Z" fill="black"/>
<path d="M238.188 304.513C239.293 304.513 240.188 303.617 240.188 302.513C240.188 301.408 239.293 300.513 238.188 300.513C237.084 300.513 236.188 301.408 236.188 302.513C236.188 303.617 237.084 304.513 238.188 304.513Z" fill="black"/>
<path d="M260.188 304.513C261.292 304.513 262.188 303.617 262.188 302.513C262.188 301.408 261.292 300.513 260.188 300.513C259.083 300.513 258.188 301.408 258.188 302.513C258.188 303.617 259.083 304.513 260.188 304.513Z" fill="black"/>
<path d="M281.188 304.513C282.292 304.513 283.188 303.617 283.188 302.513C283.188 301.408 282.292 300.513 281.188 300.513C280.083 300.513 279.188 301.408 279.188 302.513C279.188 303.617 280.083 304.513 281.188 304.513Z" fill="black"/>
<path d="M286.188 324.513C287.292 324.513 288.188 323.617 288.188 322.513C288.188 321.408 287.292 320.513 286.188 320.513C285.083 320.513 284.188 321.408 284.188 322.513C284.188 323.617 285.083 324.513 286.188 324.513Z" fill="black"/>
<path d="M264.188 324.513C265.292 324.513 266.188 323.617 266.188 322.513C266.188 321.408 265.292 320.513 264.188 320.513C263.083 320.513 262.188 321.408 262.188 322.513C262.188 323.617 263.083 324.513 264.188 324.513Z" fill="black"/>
<path d="M243.188 324.513C244.293 324.513 245.188 323.617 245.188 322.513C245.188 321.408 244.293 320.513 243.188 320.513C242.084 320.513 241.188 321.408 241.188 322.513C241.188 323.617 242.084 324.513 243.188 324.513Z" fill="black"/>
<path d="M222.188 324.513C223.293 324.513 224.188 323.617 224.188 322.513C224.188 321.408 223.293 320.513 222.188 320.513C221.084 320.513 220.188 321.408 220.188 322.513C220.188 323.617 221.084 324.513 222.188 324.513Z" fill="black"/>
<path d="M291.188 344.513C292.292 344.513 293.188 343.617 293.188 342.513C293.188 341.408 292.292 340.513 291.188 340.513C290.083 340.513 289.188 341.408 289.188 342.513C289.188 343.617 290.083 344.513 291.188 344.513Z" fill="black"/>
<path d="M269.188 344.513C270.292 344.513 271.188 343.617 271.188 342.513C271.188 341.408 270.292 340.513 269.188 340.513C268.083 340.513 267.188 341.408 267.188 342.513C267.188 343.617 268.083 344.513 269.188 344.513Z" fill="black"/>
<path d="M248.188 344.513C249.293 344.513 250.188 343.617 250.188 342.513C250.188 341.408 249.293 340.513 248.188 340.513C247.084 340.513 246.188 341.408 246.188 342.513C246.188 343.617 247.084 344.513 248.188 344.513Z" fill="black"/>
<path d="M227.188 344.513C228.293 344.513 229.188 343.617 229.188 342.513C229.188 341.408 228.293 340.513 227.188 340.513C226.084 340.513 225.188 341.408 225.188 342.513C225.188 343.617 226.084 344.513 227.188 344.513Z" fill="black"/>
<path d="M262.186 267.513H225.186C223.986 263.113 226.686 262.346 228.186 262.513H256.186C260.586 262.513 262.019 265.846 262.186 267.513Z" fill="#302247" stroke="#302247" stroke-width="2"/>
<path d="M4.18762 26.5127L13.0068 15.5127C11.006 19.9127 11.5072 28.0127 12.0079 31.5127L88.1876 345.013L78.5079 358.513C54.3409 260.013 5.30686 60.1127 2.50686 48.5127C-0.293133 36.9127 2.68762 28.346 4.18762 26.5127Z" fill="#A66CFE"/>
<path d="M1.50781 45.0127L12.5078 31.0127" stroke="black"/>
<path d="M201.835 381.049H224.835C225.335 380.882 226.435 381.049 226.835 383.049C227.235 385.049 230.335 397.216 231.835 403.049C232.168 404.049 232.435 406.449 230.835 408.049C229.235 409.649 227.502 410.382 226.835 410.549H202.835C202.093 410.085 201.247 409.177 201.334 408.049L195.835 387.049C195.502 385.049 196.235 381.049 201.835 381.049Z" fill="white"/>
<path d="M231.835 403.049C230.335 397.216 227.235 385.049 226.835 383.049C226.435 381.049 225.335 380.882 224.835 381.049H201.835C196.235 381.049 195.502 385.049 195.835 387.049L201.334 408.049M231.835 403.049C232.168 404.049 232.435 406.449 230.835 408.049C229.235 409.649 227.502 410.382 226.835 410.549H202.835C202.093 410.085 201.247 409.177 201.334 408.049M231.835 403.049C224.168 403.215 208.635 403.549 207.835 403.549C207.035 403.549 204.835 404.549 203.835 405.049C202.062 406.113 201.402 407.151 201.334 408.049" stroke="black"/>
<path d="M417.834 474.549C417.834 477.349 416.969 479.865 415.593 481.67C414.218 483.476 412.354 484.549 410.334 484.549C408.314 484.549 406.45 483.476 405.075 481.67C403.699 479.865 402.834 477.349 402.834 474.549C402.834 471.749 403.699 469.233 405.075 467.427C406.45 465.622 408.314 464.549 410.334 464.549C412.354 464.549 414.218 465.622 415.593 467.427C416.969 469.233 417.834 471.749 417.834 474.549Z" fill="white" stroke="black"/>
<path d="M218.334 410.549L233.335 468.049C237.344 485.5 236.635 508.249 223.835 523.049C211.035 537.849 184.501 564.549 172.835 576.049C151.07 597.5 123.835 635.5 137.834 690.549C147.446 722.898 188.702 785.088 276.834 775.049C311.612 768.398 369.502 728.188 322.834 620.549C310.556 597.366 293.5 545.4 299.5 527C311.076 491.5 342.169 482.098 364.834 476.549C369.834 475.215 385.734 472.949 409.334 474.549" stroke="black" stroke-width="12" stroke-linecap="round"/>
</svg>
