<svg width="618" height="537" viewBox="0 0 618 537" fill="none" xmlns="http://www.w3.org/2000/svg">
<path d="M484.256 215.054C486.414 212.005 486.887 208.63 485.313 207.516C483.738 206.403 480.713 207.971 478.556 211.02C476.398 214.069 475.908 217.992 477.482 219.106C479.056 220.22 482.099 218.103 484.256 215.054Z" fill="black"/>
<path d="M448.568 205.268C448.401 196.918 454.568 189.541 457.912 188.004C458.378 187.744 459.563 187.95 461.699 189.776C463.835 191.603 477.032 202.17 483.363 207.226C477.121 210.097 476.502 215.602 476.973 217.997C469.391 214.822 453.686 208.234 451.521 207.285C449.357 206.336 448.651 205.545 448.568 205.268Z" fill="#80858F" stroke="black" stroke-width="1.55184"/>
<path d="M480.422 204.657C479.723 205.312 478.876 206.196 478.032 207.213M478.032 207.213C475.574 210.176 473.148 214.266 474.527 217.091M478.032 207.213L480.563 208.779M476.939 202.073C476.286 202.478 475.438 203.15 474.559 204.073M474.559 204.073C472.419 206.317 470.091 210.045 469.929 215.019M474.559 204.073L470.151 201.522M473.473 198.941C472.555 199.464 471.353 200.338 470.151 201.522M470.151 201.522C467.562 204.072 464.968 208.061 465.182 213.087M469.176 196.056C468.372 196.667 467.36 197.564 466.318 198.681M466.318 198.681C463.47 201.734 460.395 206.431 460.714 211.426M466.318 198.681L462.528 195.77M465.709 192.924C464.836 193.535 463.703 194.502 462.528 195.77M462.528 195.77C459.673 198.856 456.573 203.731 456.381 209.637M461.695 189.774C460.812 190.466 459.717 191.459 458.59 192.682M458.59 192.682C455.285 196.269 451.7 201.832 452.331 207.584M458.59 192.682L455.38 189.842" stroke="black" stroke-width="1.55184"/>
<path d="M282.5 128.633L406.5 201.633C378.9 212.433 349.667 193.133 338.5 182.133C326.667 185.3 304.6 199.033 311 228.633C317.4 258.233 311.667 274.3 308 278.633C290.8 299.433 282.833 290.3 281 283.133C280.833 278.966 281.7 268.733 286.5 261.133C291.3 253.533 296.833 236.3 299 228.633C300.833 220.8 302.4 203.833 294 198.633C283.5 192.133 272.5 200.633 261.5 214.133C252.7 224.933 251.5 250.966 252 262.633C251 284.133 244.833 296.133 242.5 300.133C235.3 322.933 165.167 366.633 131 385.633L2 310.633C13.6667 303.3 42.4 285.733 64 274.133C85.6 262.533 102.667 242.633 108.5 234.133C113.5 226.133 123.6 205.533 124 187.133C124.4 168.733 126.167 158.466 127 155.633C127.667 152.633 131 143.833 139 132.633C147 121.433 159 122.633 164 124.633L184 136.133C184.333 133.3 186.3 125.733 191.5 118.133C196.7 110.533 207.667 108.966 212.5 109.133L246.5 129.133C251.667 130.467 263.6 132.333 270 129.133C276.4 125.933 281 127.467 282.5 128.633Z" fill="#D0F500" stroke="#0046E6" stroke-width="2"/>
<path d="M587 135L572 126.5C568.667 126.5 562.5 128.6 564.5 137L580 145C581.833 145.833 584.9 147.2 586.5 146C589 147.333 594.9 151.8 596.5 159C598.1 166.2 610.333 173 616.5 175.5V168C609.3 166.8 604.5 161.167 603 158.5C601.8 152.9 595 144.833 591.5 141.5C591.1 139.9 588.333 136.5 587 135Z" fill="white" stroke="white" stroke-width="2"/>
<path d="M591.5 79.4999L462 4.49994C448.8 -0.300064 437.5 2.49994 433.5 4.49994L287 87.9999C282.333 91.4999 272.2 99.3 273 102.5C273.8 105.7 261.333 121.333 254.5 128.5C256.1 131.7 266.5 129.333 271.5 128C271.9 121.2 276.333 120.833 278.5 121.5L410.5 197C421.3 208.2 411.667 207 405.5 205L400.5 212L338.5 249C346.9 254.2 360.667 251.667 366.5 249.5L421 215.5C427.5 197 438.667 184.333 445.5 181C484.833 158.333 567.7 110.7 584.5 101.5C601.3 92.2999 596.167 82.9999 591.5 79.4999Z" fill="white" stroke="white" stroke-width="2"/>
<path d="M549 96.6333C549.012 97.9655 549.86 99.3491 550.525 100.133C554.925 104.133 561.358 102.8 564.025 101.633L583.025 90.1333C583.13 89.3446 583.125 88.6241 583.025 87.9677M549 96.6333C548.992 95.7001 549.407 94.7922 550.525 94.1332L570.025 82.6333C574.499 81.4402 582.176 82.3824 583.025 87.9677M549 96.6333V101.633C551.5 104.633 557 109.133 566.011 103.633C575.204 98.0222 581.173 94.6333 583.011 93.6333C583.187 92.1896 583.436 89.0352 583.025 87.9677" stroke="white" stroke-width="2"/>
<path d="M448 180.133C487.333 157.3 570 109.433 586 100.633C593.611 96.4473 596.319 92.2464 596.547 88.6331L597.5 129.133C597.1 136.333 592 139.466 589.5 140.133C589.9 137.733 588.667 136.133 588 135.633L572 126.633C564.4 126.633 563.833 133.3 564.5 136.633L579 145.633C514.833 182.8 383.4 259.433 369 266.633C354.6 273.833 341.667 268.966 337 265.633L314 252.633L312 232.633C315.5 234.633 325.6 240.433 338 247.633C350.4 254.833 363.833 250.633 369 247.633L413.5 222.133C416.333 220.466 423.1 214.333 427.5 203.133C431.9 191.933 443 183.133 448 180.133Z" fill="black"/>
<path d="M252.5 130.633C257.333 124.633 268 110.733 272 103.133C276 95.533 282.333 90.2997 285 88.633L432.5 4.13299C437.167 1.46632 449.9 -1.96701 463.5 5.63299C477.1 13.233 554.5 58.133 591.5 79.6331C593.363 80.9179 595.35 83.0248 596.172 85.6331C596.468 86.573 596.613 87.578 596.547 88.6331M596.547 88.6331C596.319 92.2464 593.611 96.4473 586 100.633C570 109.433 487.333 157.3 448 180.133C443 183.133 431.9 191.933 427.5 203.133C423.1 214.333 416.333 220.466 413.5 222.133L369 247.633C363.833 250.633 350.4 254.833 338 247.633C325.6 240.433 315.5 234.633 312 232.633L314 252.633L337 265.633C341.667 268.966 354.6 273.833 369 266.633C383.4 259.433 514.833 182.8 579 145.633L564.5 136.633C563.833 133.3 564.4 126.633 572 126.633L588 135.633C588.667 136.133 589.9 137.733 589.5 140.133C592 139.466 597.1 136.333 597.5 129.133L596.547 88.6331Z" stroke="white" stroke-width="2"/>
<path d="M420.999 22.633L303.499 89.633C297.099 93.2823 300.165 97.1536 302.499 98.6331C330.332 114.633 387.299 147.433 392.499 150.633C397.699 153.833 403.999 151.966 406.499 150.633C443.165 129.466 518.199 86.1331 524.999 82.1331C531.799 78.1331 528.499 74.4664 525.999 73.1331C500.665 58.633 447.799 28.433 438.999 23.633C430.199 18.833 423.332 20.9663 420.999 22.633Z" fill="black" stroke="black" stroke-width="2"/>
<path d="M586.5 146.133C582.666 147.633 577.5 145.633 579.5 139.633C581.743 132.902 590.001 135.133 590.5 140.633M586.5 146.133C584.333 145.8 580.84 142.657 583 139.633C583.896 138.378 586.5 136.634 590.5 140.633M586.5 146.133C585.833 144.467 585.7 141.034 590.5 140.633M586.5 146.133C589.167 147.8 594.8 152.433 596 157.633C597.2 162.833 601.5 167.133 603.5 168.633C606.167 170.8 613 176 617 176M590.5 140.633C593.833 142.633 600.5 150.633 603.5 158.633C605.5 162.633 612.5 167.5 617 167.5" stroke="black" stroke-width="2"/>
<path d="M284 100.633L426 182.633" stroke="white" stroke-width="2" stroke-linecap="round"/>
<path d="M341.5 161C340 165.167 334.8 173 326 171C317.2 169 313.667 168.5 313 168.5M273.5 144C272.167 145.167 269.682 146.181 268.5 151.5C267.5 156 263.247 156.958 260.5 156.5C256.5 155.833 249.5 155.5 247.5 159C246.667 160.5 245.7 164.5 248.5 168.5C251.3 172.5 251 174.5 250.5 175M211.5 152C206.667 149.833 196.4 146.8 194 152C191.6 157.2 194.333 164.5 196 167.5C199.056 173 207.5 182 203 189.5C200.201 194.165 196.764 193.926 195 194C189.806 194.216 180 194.5 178.5 202C177.127 208.861 185 220.5 190.5 226C197.333 233.833 209 247.333 205 254C202 259 197 257 190.5 257L164.5 256C160.166 256 151.4 259 151 271C150.833 276.167 146.3 286.3 129.5 285.5C112.7 284.7 108.167 290.5 108 293.5C107.5 295.333 107.9 301.3 113.5 310.5C119.1 319.7 115.5 327.333 113 330C112.5 330.833 110 333.1 104 335.5C96.5 338.5 91 343.5 90 345.5" stroke="black" stroke-width="2"/>
<path d="M388 191C381.5 193.333 365.6 196.8 354 192M291.5 134.5C287.167 136.5 275.3 139.8 262.5 137M321 173C313.5 173.833 297.6 180.3 294 199.5M224.5 117C217.167 117 201.5 122.4 197.5 144M270.5 187C263 187.5 246.4 193.5 240 213.5C238.167 218.167 234.7 230.7 235.5 243.5C236.3 256.3 232.167 272.5 230 279C226.167 289.333 212.8 313.7 190 328.5C167.2 343.3 138.5 360.333 127 367L30 310.5C51.1667 298.5 95.7 272.2 104.5 263C115.5 251.5 133.5 235 138 197C142.5 159 143.5 156.5 149.5 146C154.3 137.6 166.833 132.167 172.5 130.5" stroke="white" stroke-width="2"/>
<path d="M285.5 126.633C293.1 131.433 373.667 177.633 413 200.133C414 202.299 414.6 206.433 409 205.633L406 204.633C404.667 206.299 400.8 210.333 396 213.133C391.2 215.933 355.333 236.966 338 247.133V265.633L301.163 286.885C299.648 288.08 297.985 289.073 296.176 289.762L130 385.633C156.333 370.133 213.5 334.633 231.5 316.633C254 294.133 252.5 252.133 252.5 246.633C252.5 242.233 253.167 237.133 253.5 235.133C260.7 203.533 279.5 196.299 288 196.633C309.6 199.033 298.667 235.299 290.5 253.133C284 264.799 274.4 288.633 288 290.633C290.994 291.073 293.72 290.698 296.176 289.762L301.163 286.885C306.931 282.337 310.559 274.868 312 270.133C315.2 263.333 313 241.966 311.5 232.133C310.333 226.299 308.8 212.933 312 206.133C316 197.633 327 185.633 338.5 182.633C339.833 183.133 344.9 186.033 354.5 193.633C364.1 201.233 376.5 203.799 381.5 204.133C387.833 204.466 401.8 204.433 407 201.633L281.5 128.133C280.833 127.799 279.2 127.133 278 127.133C276.8 127.133 274.5 127.799 273.5 128.133C272.3 122.533 276 121.799 278 122.133L285.5 126.633Z" fill="black"/>
<path d="M338 247.133C355.333 236.966 391.2 215.933 396 213.133C400.8 210.333 404.667 206.299 406 204.633L409 205.633C414.6 206.433 414 202.299 413 200.133C373.667 177.633 293.1 131.433 285.5 126.633L278 122.133C276 121.799 272.3 122.533 273.5 128.133C274.5 127.799 276.8 127.133 278 127.133C279.2 127.133 280.833 127.799 281.5 128.133L407 201.633C401.8 204.433 387.833 204.466 381.5 204.133C376.5 203.799 364.1 201.233 354.5 193.633C344.9 186.033 339.833 183.133 338.5 182.633M338 247.133L311.5 232.133M338 247.133V265.633L130 385.633C156.333 370.133 213.5 334.633 231.5 316.633C254 294.133 252.5 252.133 252.5 246.633C252.5 242.233 253.167 237.133 253.5 235.133C260.7 203.533 279.5 196.299 288 196.633M338.5 182.633C327 185.633 316 197.633 312 206.133C308.8 212.933 310.333 226.299 311.5 232.133M338.5 182.633L214.5 110.633M311.5 232.133C313 241.966 315.2 263.333 312 270.133C309.667 277.799 301.6 292.633 288 290.633C274.4 288.633 284 264.799 290.5 253.133C298.667 235.299 309.6 199.033 288 196.633M288 196.633L164 124.633" stroke="black" stroke-width="2"/>
<path d="M179 206C182.314 206 185 203.314 185 200C185 196.686 182.314 194 179 194C175.686 194 173 196.686 173 200C173 203.314 175.686 206 179 206Z" fill="black"/>
<path d="M362.851 83.6179L362.505 83.0023L362.16 82.3867L362.775 82.0413L363.391 81.6958L364.006 81.3504L364.622 81.0049L364.277 80.3894L363.931 79.7738L363.586 79.1582L363.24 78.5426L363.856 78.1972L364.471 77.8517L364.817 78.4673L365.162 79.0829L365.508 79.6985L365.853 80.3141L366.469 79.9686L367.084 79.6232L367.7 79.2777L368.315 78.9323L368.661 79.5478L369.006 80.1634L368.391 80.5089L367.775 80.8543L367.16 81.1998L366.544 81.5452L366.889 82.1608L367.235 82.7764L367.58 83.3919L367.926 84.0075L367.31 84.353L366.695 84.6984L366.349 84.0828L366.004 83.4673L365.658 82.8517L365.313 82.2361L364.697 82.5816L364.082 82.927L363.466 83.2724L362.851 83.6179ZM372.242 81.5853L371.897 80.9698L371.551 80.3542L371.206 79.7386L370.86 79.123L370.515 78.5075L370.169 77.8919L370.785 77.5464L370.44 76.9309L370.094 76.3153L370.71 75.9698L370.364 75.3542L370.019 74.7387L370.634 74.3932L370.289 73.7776L369.943 73.1621L370.559 72.8166L370.214 72.201L369.868 71.5855L370.484 71.24L370.138 70.6244L369.793 70.0089L370.408 69.6634L370.063 69.0478L369.718 68.4323L370.333 68.0868L370.949 67.7414L371.294 68.3569L371.64 68.9725L371.024 69.318L371.369 69.9335L371.715 70.5491L371.099 70.8946L371.445 71.5101L371.79 72.1257L371.175 72.4712L371.52 73.0868L371.865 73.7023L371.25 74.0478L371.595 74.6634L371.941 75.2789L371.325 75.6244L371.671 76.24L372.016 76.8555L371.401 77.201L371.746 77.8166L372.091 78.4321L372.437 79.0477L372.782 79.6633L373.398 79.3179L374.013 78.9724L374.629 78.627L375.245 78.2815L374.899 77.6659L374.554 77.0504L374.208 76.4348L373.863 75.8192L374.478 75.4738L375.094 75.1283L375.439 75.7439L375.785 76.3595L376.13 76.975L376.476 77.5906L377.091 77.2452L377.707 76.8997L378.323 76.5543L378.938 76.2088L379.284 76.8244L379.629 77.44L379.013 77.7854L378.398 78.1309L377.782 78.4763L377.167 78.8218L377.512 79.4374L377.858 80.0529L378.203 80.6685L378.548 81.2841L377.933 81.6295L377.317 81.975L376.972 81.3594L376.626 80.7438L376.281 80.1282L375.936 79.5127L375.32 79.8581L374.704 80.2036L374.089 80.549L373.473 80.8945L372.858 81.2399L372.242 81.5853ZM384.096 78.171L383.75 77.5554L383.405 76.9399L384.021 76.5944L384.636 76.249L385.252 75.9035L385.867 75.5581L386.483 75.2126L387.098 74.8672L387.444 75.4828L387.789 76.0983L387.174 76.4438L386.558 76.7892L385.943 77.1347L385.327 77.4801L384.711 77.8256L384.096 78.171ZM382.174 77.6308L381.828 77.0152L381.483 76.3996L381.138 75.784L380.792 75.1684L381.408 74.823L382.023 74.4775L382.369 75.0931L382.714 75.7087L383.06 76.3243L383.405 76.9399L382.789 77.2853L382.174 77.6308ZM387.098 74.8672L386.753 74.2516L386.408 73.636L386.062 73.0204L385.717 72.4049L385.371 71.7893L385.026 71.1737L384.68 70.5581L384.335 69.9426L383.989 69.327L383.644 68.7114L384.26 68.366L384.875 68.0205L385.221 68.6361L385.566 69.2517L385.912 69.8672L386.257 70.4828L386.602 71.0984L386.948 71.714L387.293 72.3296L387.639 72.9451L387.984 73.5607L388.33 74.1763L387.714 74.5217L387.098 74.8672ZM379.41 72.7061L379.065 72.0905L378.719 71.475L378.374 70.8594L378.028 70.2438L377.683 69.6282L377.338 69.0127L376.992 68.3971L376.647 67.7815L376.301 67.1659L375.956 66.5503L375.61 65.9348L375.265 65.3192L375.88 64.9737L376.496 64.6283L377.112 64.2828L377.727 63.9374L378.343 63.592L378.958 63.2465L379.574 62.9011L380.19 62.5556L380.805 62.2102L381.421 61.8647L381.766 62.4803L382.112 63.0959L381.496 63.4413L380.88 63.7868L380.265 64.1322L379.649 64.4777L379.034 64.8231L378.418 65.1686L377.803 65.514L377.187 65.8595L377.532 66.475L377.878 67.0906L378.223 67.7062L378.569 68.3218L378.914 68.9373L379.26 69.5529L379.605 70.1685L380.221 69.8231L380.836 69.4776L380.491 68.862L381.106 68.5166L381.722 68.1711L382.338 67.8257L382.953 67.4802L383.299 68.0958L383.644 68.7114L383.028 69.0568L382.413 69.4023L381.797 69.7477L381.182 70.0932L381.527 70.7088L380.912 71.0542L380.296 71.3997L380.641 72.0152L380.026 72.3607L379.41 72.7061ZM392.721 73.3307L392.376 72.7151L392.03 72.0996L392.646 71.7541L393.261 71.4087L393.877 71.0632L394.493 70.7178L395.108 70.3723L395.724 70.0269L396.069 70.6425L396.415 71.258L395.799 71.6035L395.184 71.9489L394.568 72.2944L393.952 72.6398L393.337 72.9853L392.721 73.3307ZM390.799 72.7905L390.454 72.1749L390.108 71.5593L389.763 70.9437L389.417 70.3281L389.072 69.7126L388.726 69.097L388.381 68.4814L388.036 67.8658L387.69 67.2502L387.345 66.6347L386.999 66.0191L386.654 65.4035L386.308 64.7879L385.963 64.1724L385.617 63.5568L385.272 62.9412L384.927 62.3256L384.581 61.71L385.197 61.3646L385.812 61.0191L386.158 61.6347L386.503 62.2503L386.849 62.8659L387.194 63.4815L387.54 64.097L387.885 64.7126L388.23 65.3282L388.576 65.9438L388.921 66.5594L389.267 67.1749L389.612 67.7905L389.958 68.4061L390.303 69.0217L390.649 69.6372L390.994 70.2528L391.339 70.8684L391.685 71.484L392.03 72.0996L391.415 72.445L390.799 72.7905ZM395.724 70.0269L395.378 69.4113L395.033 68.7957L394.687 68.1801L394.342 67.5646L393.997 66.949L393.651 66.3334L393.306 65.7178L392.96 65.1023L392.615 64.4867L392.269 63.8711L391.924 63.2555L391.578 62.6399L391.233 62.0244L390.888 61.4088L390.542 60.7932L390.197 60.1776L389.851 59.562L389.506 58.9465L390.121 58.601L390.737 58.2556L391.082 58.8712L391.428 59.4867L391.773 60.1023L392.119 60.7179L392.464 61.3335L392.81 61.949L393.155 62.5646L393.5 63.1802L393.846 63.7958L394.191 64.4114L394.537 65.0269L394.882 65.6425L395.228 66.2581L395.573 66.8737L395.919 67.4892L396.264 68.1048L396.609 68.7204L396.955 69.336L396.339 69.6814L395.724 70.0269ZM385.812 61.0191L385.467 60.4036L385.121 59.788L385.737 59.4425L386.353 59.0971L386.968 58.7517L387.584 58.4062L388.199 58.0608L388.815 57.7153L389.16 58.3309L389.506 58.9465L388.89 59.2919L388.275 59.6374L387.659 59.9828L387.043 60.3283L386.428 60.6737L385.812 61.0191ZM391.189 67.7152L390.843 67.0996L390.498 66.484L390.152 65.8685L389.807 65.2529L389.462 64.6373L389.116 64.0217L389.732 63.6763L390.347 63.3308L390.693 63.9464L391.038 64.562L391.384 65.1776L391.729 65.7931L392.075 66.4087L392.42 67.0243L391.804 67.3697L391.189 67.7152ZM401.347 68.4904L401.001 67.8748L400.656 67.2593L401.271 66.9138L401.887 66.5684L402.502 66.2229L403.118 65.8775L403.734 65.532L404.349 65.1866L404.695 65.8022L405.04 66.4177L404.424 66.7632L403.809 67.1086L403.193 67.4541L402.578 67.7995L401.962 68.145L401.347 68.4904ZM399.424 67.9501L399.079 67.3346L398.734 66.719L398.388 66.1034L398.043 65.4878L397.697 64.8723L397.352 64.2567L397.006 63.6411L396.661 63.0255L396.315 62.4099L395.97 61.7944L395.625 61.1788L395.279 60.5632L394.934 59.9476L394.588 59.3321L394.243 58.7165L393.897 58.1009L393.552 57.4853L393.206 56.8697L393.822 56.5243L394.438 56.1788L394.783 56.7944L395.128 57.41L395.474 58.0256L395.819 58.6412L396.165 59.2567L396.51 59.8723L396.856 60.4879L397.201 61.1035L397.547 61.7191L397.892 62.3346L398.238 62.9502L398.583 63.5658L398.928 64.1814L399.274 64.7969L399.619 65.4125L399.965 66.0281L400.31 66.6437L400.656 67.2593L400.04 67.6047L399.424 67.9501ZM404.349 65.1866L404.004 64.571L403.658 63.9554L403.313 63.3398L402.967 62.7243L402.622 62.1087L402.276 61.4931L401.931 60.8775L401.586 60.2619L401.24 59.6464L400.895 59.0308L400.549 58.4152L400.204 57.7996L399.858 57.1841L399.513 56.5685L399.167 55.9529L398.822 55.3373L398.477 54.7217L398.131 54.1062L398.747 53.7607L399.362 53.4153L399.708 54.0308L400.053 54.6464L400.399 55.262L400.744 55.8776L401.089 56.4932L401.435 57.1087L401.78 57.7243L402.126 58.3399L402.471 58.9555L402.817 59.5711L403.162 60.1866L403.508 60.8022L403.853 61.4178L404.198 62.0334L404.544 62.6489L404.889 63.2645L405.235 63.8801L405.58 64.4957L404.965 64.8411L404.349 65.1866ZM394.438 56.1788L394.092 55.5633L393.747 54.9477L394.362 54.6022L394.978 54.2568L395.593 53.9113L396.209 53.5659L396.825 53.2205L397.44 52.875L397.786 53.4906L398.131 54.1062L397.515 54.4516L396.9 54.7971L396.284 55.1425L395.669 55.488L395.053 55.8334L394.438 56.1788ZM399.814 62.8749L399.469 62.2593L399.123 61.6437L398.778 61.0282L398.432 60.4126L398.087 59.797L397.741 59.1814L398.357 58.836L398.973 58.4905L399.318 59.1061L399.663 59.7217L400.009 60.3373L400.354 60.9528L400.7 61.5684L401.045 62.184L400.43 62.5294L399.814 62.8749ZM378.827 112.088L378.482 111.473L378.137 110.857L377.791 110.242L377.446 109.626L377.1 109.01L376.755 108.395L376.409 107.779L376.064 107.164L375.718 106.548L375.373 105.933L375.028 105.317L374.682 104.701L374.337 104.086L373.991 103.47L373.646 102.855L373.3 102.239L372.955 101.624L372.609 101.008L372.264 100.392L371.919 99.7768L371.573 99.1612L371.228 98.5457L371.843 98.2002L372.459 97.8548L373.074 97.5093L373.69 97.1639L374.306 96.8184L374.921 96.473L375.537 96.1275L376.152 95.7821L376.498 96.3977L376.843 97.0132L376.228 97.3587L375.612 97.7041L374.996 98.0496L374.381 98.395L373.765 98.7405L373.15 99.0859L373.495 99.7015L373.841 100.317L374.186 100.933L374.531 101.548L374.877 102.164L375.222 102.779L375.568 103.395L375.913 104.011L376.529 103.665L377.144 103.32L377.76 102.974L378.376 102.629L378.991 102.283L379.607 101.938L379.952 102.553L380.298 103.169L379.682 103.514L379.066 103.86L378.451 104.205L377.835 104.551L377.22 104.896L376.604 105.242L376.95 105.857L377.295 106.473L377.64 107.088L377.986 107.704L378.331 108.32L378.677 108.935L379.022 109.551L379.368 110.166L379.983 109.821L380.599 109.475L381.214 109.13L381.83 108.785L382.446 108.439L383.061 108.094L383.407 108.709L383.752 109.325L383.137 109.67L382.521 110.016L381.905 110.361L381.29 110.707L380.674 111.052L380.059 111.397L379.443 111.743L378.827 112.088ZM385.593 108.292L385.247 107.676L384.902 107.061L384.556 106.445L384.211 105.83L383.866 105.214L383.52 104.598L383.175 103.983L382.829 103.367L382.484 102.752L382.138 102.136L381.793 101.52L381.447 100.905L381.102 100.289L380.757 99.6737L380.411 99.0582L380.066 98.4426L379.72 97.827L379.375 97.2114L379.029 96.5959L378.684 95.9803L378.338 95.3647L377.993 94.7491L378.609 94.4037L379.224 94.0582L379.57 94.6738L379.915 95.2894L380.26 95.905L380.606 96.5205L381.222 96.1751L381.837 95.8296L382.183 96.4452L382.528 97.0608L383.144 96.7154L383.489 97.3309L383.834 97.9465L384.45 97.6011L384.795 98.2166L385.141 98.8322L385.757 98.4868L386.372 98.1413L386.027 97.5258L385.681 96.9102L386.297 96.5647L385.951 95.9491L385.606 95.3336L386.221 94.9881L385.876 94.3725L385.531 93.757L386.146 93.4115L386.762 93.0661L386.416 92.4505L386.071 91.8349L385.725 91.2193L385.38 90.6038L385.996 90.2583L386.611 89.9129L386.957 90.5284L387.302 91.144L387.647 91.7596L387.993 92.3752L388.338 92.9908L388.684 93.6063L389.029 94.2219L389.375 94.8375L389.72 95.4531L390.066 96.0686L390.411 96.6842L390.756 97.2998L391.102 97.9154L391.447 98.531L391.793 99.1465L392.138 99.7621L392.484 100.378L392.829 100.993L393.175 101.609L393.52 102.224L393.865 102.84L394.211 103.456L393.595 103.801L392.98 104.146L392.634 103.531L392.289 102.915L391.943 102.3L391.598 101.684L391.253 101.069L390.907 100.453L390.562 99.8374L390.216 99.2219L389.871 98.6063L389.525 97.9907L389.18 97.3751L388.834 96.7595L388.489 96.144L388.144 95.5284L387.798 94.9128L387.453 94.2972L386.837 94.6427L387.182 95.2583L387.528 95.8738L386.912 96.2193L387.258 96.8349L387.603 97.4504L386.988 97.7959L387.333 98.4115L387.679 99.027L387.063 99.3725L387.408 99.9881L387.754 100.604L387.138 100.949L386.523 101.295L386.177 100.679L385.832 100.063L385.216 100.409L384.871 99.7932L384.525 99.1777L383.91 99.5231L383.564 98.9075L383.219 98.292L382.603 98.6374L382.258 98.0218L381.912 97.4063L381.297 97.7517L381.642 98.3673L381.988 98.9829L382.333 99.5984L382.679 100.214L383.024 100.83L383.37 101.445L383.715 102.061L384.06 102.676L384.406 103.292L384.751 103.907L385.097 104.523L385.442 105.139L385.788 105.754L386.133 106.37L386.479 106.985L386.824 107.601L386.208 107.946L385.593 108.292ZM396.671 102.075L396.325 101.46L395.98 100.844L395.634 100.228L395.289 99.6128L394.944 98.9973L394.598 98.3817L394.253 97.7661L393.907 97.1505L393.562 96.5349L393.216 95.9194L392.871 95.3038L392.525 94.6882L392.18 94.0726L391.835 93.4571L391.489 92.8415L391.144 92.2259L390.798 91.6103L390.453 90.9947L390.107 90.3792L389.762 89.7636L389.416 89.148L389.071 88.5324L389.687 88.187L390.302 87.8415L390.918 87.4961L391.533 87.1506L392.149 86.8052L392.764 86.4597L393.38 86.1143L393.996 85.7689L394.341 86.3844L394.687 87L394.071 87.3455L393.455 87.6909L392.84 88.0364L392.224 88.3818L391.609 88.7272L390.993 89.0727L391.338 89.6883L391.684 90.3038L392.029 90.9194L392.375 91.535L392.72 92.1506L393.066 92.7662L393.411 93.3817L393.757 93.9973L394.102 94.6129L394.448 95.2285L395.063 94.883L395.679 94.5376L396.294 94.1921L396.91 93.8467L397.525 93.5012L398.141 93.1558L398.486 93.7714L398.832 94.387L398.216 94.7324L397.601 95.0778L396.985 95.4233L396.37 95.7687L395.754 96.1142L395.138 96.4596L395.484 97.0752L395.829 97.6908L396.175 98.3064L396.52 98.9219L396.866 99.5375L397.211 100.153L397.557 100.769L397.902 101.384L397.286 101.73L396.671 102.075ZM398.141 93.1558L397.796 92.5402L397.45 91.9246L397.105 91.3091L396.759 90.6935L396.414 90.0779L396.068 89.4623L395.723 88.8467L395.377 88.2312L395.032 87.6156L394.687 87L395.302 86.6546L395.918 86.3091L396.263 86.9247L396.609 87.5403L396.954 88.1559L397.299 88.7714L397.645 89.387L397.99 90.0026L398.336 90.6182L398.681 91.2337L399.027 91.8493L399.372 92.4649L398.757 92.8103L398.141 93.1558ZM404.683 97.5789L404.338 96.9634L403.992 96.3478L403.647 95.7322L403.301 95.1166L402.956 94.5011L402.61 93.8855L402.265 93.2699L401.919 92.6543L401.574 92.0387L401.228 91.4232L400.883 90.8076L400.538 90.192L400.192 89.5764L399.847 88.9608L399.501 88.3453L399.156 87.7297L398.81 87.1141L398.465 86.4985L398.119 85.883L397.774 85.2674L397.429 84.6518L397.083 84.0362L397.699 83.6908L398.314 83.3453L398.66 83.9609L399.005 84.5765L399.351 85.1921L399.696 85.8076L400.042 86.4232L400.387 87.0388L400.732 87.6544L401.078 88.27L401.423 88.8855L401.769 89.5011L402.114 90.1167L402.46 90.7323L402.805 91.3478L403.151 91.9634L403.496 92.579L403.841 93.1946L404.187 93.8102L404.532 94.4257L404.878 95.0413L405.223 95.6569L405.839 95.3114L406.454 94.966L407.07 94.6206L407.686 94.2751L408.301 93.9297L408.917 93.5842L409.262 94.1998L409.608 94.8154L408.992 95.1608L408.376 95.5063L407.761 95.8517L407.145 96.1972L406.53 96.5426L405.914 96.8881L405.299 97.2335L404.683 97.5789ZM412.679 93.0915L412.334 92.4759L411.989 91.8604L412.604 91.5149L413.22 91.1695L413.835 90.824L414.451 90.4786L415.066 90.1331L415.682 89.7877L416.027 90.4033L416.373 91.0188L415.757 91.3643L415.142 91.7097L414.526 92.0552L413.911 92.4006L413.295 92.7461L412.679 93.0915ZM410.757 92.5512L410.412 91.9357L410.067 91.3201L409.721 90.7045L409.376 90.0889L409.03 89.4734L408.685 88.8578L408.339 88.2422L407.994 87.6266L407.648 87.011L407.303 86.3955L406.957 85.7799L406.612 85.1643L406.267 84.5487L405.921 83.9332L405.576 83.3176L405.23 82.702L404.885 82.0864L404.539 81.4708L405.155 81.1254L405.771 80.7799L406.116 81.3955L406.461 82.0111L406.807 82.6267L407.152 83.2423L407.498 83.8578L407.843 84.4734L408.189 85.089L408.534 85.7046L408.88 86.3202L409.225 86.9357L409.57 87.5513L409.916 88.1669L410.261 88.7825L410.607 89.398L410.952 90.0136L411.298 90.6292L411.643 91.2448L411.989 91.8604L411.373 92.2058L410.757 92.5512ZM415.682 89.7877L415.337 89.1721L414.991 88.5565L414.646 87.9409L414.3 87.3254L413.955 86.7098L413.609 86.0942L413.264 85.4786L412.918 84.863L412.573 84.2475L412.228 83.6319L411.882 83.0163L411.537 82.4007L411.191 81.7852L410.846 81.1696L410.5 80.554L410.155 79.9384L409.809 79.3228L409.464 78.7073L410.08 78.3618L410.695 78.0164L411.041 78.6319L411.386 79.2475L411.731 79.8631L412.077 80.4787L412.422 81.0943L412.768 81.7098L413.113 82.3254L413.459 82.941L413.804 83.5566L414.15 84.1722L414.495 84.7877L414.841 85.4033L415.186 86.0189L415.531 86.6345L415.877 87.25L416.222 87.8656L416.568 88.4812L416.913 89.0968L416.298 89.4422L415.682 89.7877ZM405.771 80.7799L405.425 80.1644L405.08 79.5488L405.695 79.2033L406.311 78.8579L406.926 78.5124L407.542 78.167L408.158 77.8216L408.773 77.4761L409.119 78.0917L409.464 78.7073L408.848 79.0527L408.233 79.3982L407.617 79.7436L407.002 80.0891L406.386 80.4345L405.771 80.7799ZM422.536 87.5603L422.19 86.9447L421.845 86.3292L421.5 85.7136L421.154 85.098L420.809 84.4824L420.463 83.8668L420.118 83.2513L419.772 82.6357L419.157 82.9811L418.811 82.3656L418.466 81.75L417.85 82.0954L417.505 81.4798L417.159 80.8643L416.544 81.2097L416.198 80.5941L415.853 79.9786L415.237 80.324L414.892 79.7084L414.546 79.0928L413.931 79.4383L413.585 78.8227L413.24 78.2071L412.895 77.5916L412.549 76.976L412.204 76.3604L411.858 75.7448L412.474 75.3994L413.089 75.0539L413.435 75.6695L413.78 76.2851L414.126 76.9007L414.471 77.5162L414.817 78.1318L415.162 78.7474L415.778 78.402L416.123 79.0175L416.469 79.6331L417.084 79.2877L417.43 79.9032L417.775 80.5188L418.391 80.1734L418.736 80.789L419.081 81.4045L419.697 81.0591L420.313 80.7136L419.967 80.0981L419.622 79.4825L420.237 79.137L419.892 78.5215L419.546 77.9059L420.162 77.5604L419.817 76.9449L419.471 76.3293L420.087 75.9838L419.741 75.3683L419.396 74.7527L419.05 74.1371L418.705 73.5215L418.359 72.9059L418.014 72.2904L418.63 71.9449L419.245 71.5995L419.591 72.215L419.936 72.8306L420.281 73.4462L420.627 74.0618L420.972 74.6774L421.318 75.2929L420.702 75.6384L421.048 76.254L421.393 76.8695L420.778 77.215L421.123 77.8306L421.468 78.4461L420.853 78.7916L421.198 79.4072L421.544 80.0227L420.928 80.3682L421.274 80.9838L421.619 81.5993L421.004 81.9448L421.349 82.5604L421.694 83.176L422.04 83.7915L422.385 84.4071L422.731 85.0227L423.076 85.6383L423.422 86.2538L423.767 86.8694L423.152 87.2149L422.536 87.5603ZM428.699 84.1018L428.353 83.4862L428.008 82.8706L427.663 82.2551L427.317 81.6395L426.972 81.0239L426.626 80.4083L426.281 79.7928L425.935 79.1772L425.59 78.5616L425.244 77.946L424.899 77.3304L424.554 76.7149L424.208 76.0993L423.863 75.4837L423.517 74.8681L423.172 74.2525L422.826 73.637L422.481 73.0214L422.135 72.4058L421.79 71.7902L421.445 71.1747L421.099 70.5591L421.715 70.2136L422.33 69.8682L422.946 69.5227L423.561 69.1773L424.177 68.8318L424.793 68.4864L425.408 68.1409L426.024 67.7955L426.369 68.4111L426.715 69.0267L426.099 69.3721L425.483 69.7176L424.868 70.063L424.252 70.4084L423.637 70.7539L423.021 71.0993L423.367 71.7149L423.712 72.3305L424.057 72.9461L424.403 73.5617L424.748 74.1772L425.094 74.7928L425.439 75.4084L425.785 76.024L426.4 75.6785L427.016 75.3331L427.631 74.9876L428.247 74.6422L428.863 74.2967L429.478 73.9513L429.824 74.5669L430.169 75.1824L429.554 75.5279L428.938 75.8733L428.322 76.2188L427.707 76.5642L427.091 76.9097L426.476 77.2551L426.821 77.8707L427.167 78.4863L427.512 79.1019L427.857 79.7174L428.203 80.333L428.548 80.9486L428.894 81.5642L429.239 82.1797L429.855 81.8343L430.47 81.4889L431.086 81.1434L431.702 80.798L432.317 80.4525L432.933 80.1071L433.278 80.7226L433.624 81.3382L433.008 81.6837L432.392 82.0291L431.777 82.3746L431.161 82.72L430.546 83.0655L429.93 83.4109L429.315 83.7564L428.699 84.1018ZM435.464 80.3053L435.119 79.6897L434.773 79.0741L434.428 78.4585L434.082 77.8429L433.737 77.2274L433.392 76.6118L433.046 75.9962L432.701 75.3806L432.355 74.7651L432.01 74.1495L431.664 73.5339L431.319 72.9183L430.973 72.3027L430.628 71.6872L430.283 71.0716L429.937 70.456L429.592 69.8404L429.246 69.2248L428.901 68.6093L428.555 67.9937L428.21 67.3781L427.864 66.7625L428.48 66.4171L429.096 66.0716L429.711 65.7262L430.327 65.3807L430.942 65.0353L431.558 64.6899L432.173 64.3444L432.789 63.999L433.135 64.6145L433.48 65.2301L432.864 65.5756L432.249 65.921L431.633 66.2665L431.018 66.6119L430.402 66.9574L429.786 67.3028L430.132 67.9184L430.477 68.534L430.823 69.1495L431.168 69.7651L431.514 70.3807L431.859 70.9963L432.205 71.6118L432.55 72.2274L433.166 71.882L433.781 71.5365L434.397 71.1911L435.012 70.8456L435.628 70.5002L436.244 70.1547L436.589 70.7703L436.934 71.3859L436.319 71.7313L435.703 72.0768L435.088 72.4222L434.472 72.7677L433.857 73.1131L433.241 73.4586L433.586 74.0742L433.932 74.6897L434.277 75.3053L434.623 75.9209L434.968 76.5365L435.314 77.1521L435.659 77.7676L436.005 78.3832L436.62 78.0378L437.236 77.6923L437.851 77.3469L438.467 77.0014L439.082 76.656L439.698 76.3105L440.043 76.9261L440.389 77.5417L439.773 77.8871L439.158 78.2326L438.542 78.578L437.927 78.9235L437.311 79.2689L436.695 79.6144L436.08 79.9598L435.464 80.3053ZM443.461 75.8178L443.115 75.2022L442.77 74.5867L443.385 74.2412L444.001 73.8958L444.617 73.5503L445.232 73.2049L445.848 72.8594L446.463 72.514L446.809 73.1296L447.154 73.7451L446.539 74.0906L445.923 74.436L445.308 74.7815L444.692 75.1269L444.076 75.4724L443.461 75.8178ZM441.539 75.2776L441.193 74.662L440.848 74.0464L440.502 73.4308L440.157 72.8152L439.811 72.1997L439.466 71.5841L440.082 71.2386L440.697 70.8932L441.043 71.5088L441.388 72.1244L441.734 72.7399L442.079 73.3555L442.424 73.9711L442.77 74.5867L442.154 74.9321L441.539 75.2776ZM446.463 72.514L446.118 71.8984L445.772 71.2828L445.427 70.6673L445.082 70.0517L444.736 69.4361L444.391 68.8205L445.006 68.4751L445.622 68.1296L445.967 68.7452L446.313 69.3608L446.658 69.9764L447.004 70.5919L447.349 71.2075L447.695 71.8231L447.079 72.1685L446.463 72.514ZM443.16 69.5114L442.814 68.8958L442.469 68.2803L443.084 67.9348L443.7 67.5894L444.045 68.2049L444.391 68.8205L443.775 69.166L443.16 69.5114ZM441.237 68.9711L440.892 68.3556L440.547 67.74L441.162 67.3945L441.778 67.0491L442.123 67.6647L442.469 68.2803L441.853 68.6257L441.237 68.9711ZM439.315 68.4309L438.97 67.8153L438.625 67.1997L439.24 66.8543L439.856 66.5088L440.201 67.1244L440.547 67.74L439.931 68.0854L439.315 68.4309ZM437.393 67.8906L437.048 67.275L436.702 66.6595L436.357 66.0439L436.012 65.4283L435.666 64.8127L435.321 64.1972L435.936 63.8517L436.552 63.5063L436.897 64.1218L437.243 64.7374L437.588 65.353L437.934 65.9686L438.279 66.5841L438.625 67.1997L438.009 67.5452L437.393 67.8906ZM441.627 63.8959L441.282 63.2803L440.936 62.6647L440.591 62.0492L440.245 61.4336L440.861 61.0881L441.476 60.7427L441.822 61.3583L442.167 61.9738L442.513 62.5894L442.858 63.205L442.243 63.5504L441.627 63.8959ZM436.552 63.5063L436.206 62.8907L435.861 62.2751L436.477 61.9297L437.092 61.5842L437.708 61.2388L438.323 60.8933L438.939 60.5479L439.554 60.2024L439.9 60.818L440.245 61.4336L439.63 61.779L439.014 62.1245L438.399 62.4699L437.783 62.8154L437.167 63.1608L436.552 63.5063Z" fill="white"/>
<path d="M352.5 252C349.3 252.4 343.5 251.333 341 250V267C344.2 269.8 350 270 352.5 270V252Z" fill="white"/>
<path d="M355.5 252V269.5M341 250C343.5 251.333 349.3 252.4 352.5 252V270C350 270 344.2 269.8 341 267V250Z" stroke="white" stroke-width="2"/>
<path d="M337.5 247.5L311 233.5M336 265L313.5 253.5M253.5 266.5L277 281" stroke="#E8E8E8" stroke-width="0.5"/>
<path d="M455.9 464.456C456.22 468.178 458.037 471.06 459.959 470.895C461.88 470.729 463.178 467.579 462.858 463.857C462.537 460.136 460.379 456.823 458.458 456.988C456.537 457.154 455.58 460.735 455.9 464.456Z" fill="black"/>
<path d="M460.671 464.668C460.723 461.55 457.593 460.924 456.021 461L417.383 467.422C403.015 470.04 371.105 477.717 358.402 487.482C345.699 497.247 318.78 511.236 306.908 517.01C298.517 520.847 274.787 528.49 246.991 528.367C219.195 528.244 189.148 516.4 177.6 510.494C166.882 504.164 143.579 486.754 136.112 467.758C128.645 448.762 132.359 431.905 135.149 425.851C139.148 418.376 152.196 400.97 172.406 391.145C192.615 381.319 214.739 375.389 223.275 373.652C241.54 371.099 280.284 365.783 289.132 364.942C297.98 364.101 307.655 362.419 311.386 361.684C316.916 361.158 330.8 360.671 342.098 362.929C353.396 365.186 383.618 369.733 397.317 371.724C405.038 372.496 422.766 373.214 431.902 369.907C441.038 366.599 512.378 351.968 546.907 345.066C560.797 340.96 589.553 328.012 593.505 304.029C598.873 271.455 563.697 234.925 532.92 227.423C511.628 222.233 491.757 213.109 484.131 210.395C482.348 210.056 478.796 209.928 478.852 212.122C478.908 214.316 480.917 215.618 481.915 215.995L535.872 235.58C547.093 239.886 572.211 253.653 582.925 274.279C593.639 294.905 583.637 314.985 577.297 322.446C572.631 326.719 559.063 336.096 542.112 339.428C525.161 342.759 462.056 357.025 432.622 363.741C425.026 365.197 407.492 367.445 398.127 364.788C387.901 363.203 366.294 359.897 361.67 359.356C355.89 358.681 320.844 351.071 300.246 356.867L235.725 364.17C219.295 367.719 183.161 376.777 170.058 384.621C153.679 394.425 134.538 407.812 127.097 428.035C121.144 444.213 125.922 461.489 129.055 468.105C134.464 479.674 151.592 505.658 176.834 517.044C195.841 528.249 246.648 546.138 297.82 528.056C310.103 523.219 339.805 509.706 360.348 494.35C380.892 478.994 406.361 474.881 416.527 474.744L453.625 468.142C455.952 468.283 460.619 467.787 460.671 464.668Z" fill="white" stroke="black" stroke-width="1.55184"/>
<path d="M489.476 448.895C494.993 455.164 495.046 464.779 493.484 468.112C493.295 468.611 492.257 469.219 489.447 469.203C486.637 469.187 469.736 469.634 461.638 469.859C464.552 463.638 461.47 459.033 459.565 457.509C467.405 455.039 483.652 449.933 485.918 449.26C488.184 448.588 489.234 448.737 489.476 448.895Z" fill="#80858F" stroke="black" stroke-width="1.55184"/>
<path d="M465.539 469.925C465.65 468.973 465.727 467.751 465.715 466.43M465.715 466.43C465.68 462.579 464.892 457.89 462.016 456.623M465.715 466.43L462.771 466.867M469.868 469.649C470.105 468.919 470.319 467.858 470.395 466.586M470.395 466.586C470.581 463.491 469.952 459.141 466.865 455.237M470.395 466.586L475.408 465.688M474.536 469.804C474.9 468.812 475.254 467.369 475.408 465.688M475.408 465.688C475.74 462.07 475.146 457.349 471.738 453.649M479.681 469.234C479.901 468.248 480.094 466.91 480.169 465.385M480.169 465.385C480.374 461.214 479.69 455.642 476.222 452.034M480.169 465.385L484.942 465.161M484.351 469.389C484.623 468.358 484.865 466.888 484.942 465.161M484.942 465.161C485.132 460.961 484.352 455.238 480.687 450.602M489.45 469.203C489.678 468.104 489.872 466.639 489.944 464.978M489.944 464.978C490.153 460.105 489.3 453.542 485.105 449.556M489.944 464.978L494.229 465.074" stroke="black" stroke-width="1.55184"/>
</svg>
