<svg width="747" height="443" viewBox="0 0 747 443" fill="none" xmlns="http://www.w3.org/2000/svg">
<path d="M503.281 6.75664L334.928 103.9L366.623 269.372C377.599 276.095 403.751 291.764 420.545 300.655C437.339 309.546 457.18 304.36 465.001 300.655C546.776 253.456 715.349 156.258 735.437 145.062C755.524 133.866 742.983 117.895 734.202 111.309C678.633 79.2021 563.79 13.0132 548.972 5.11C534.153 -2.79316 511.377 2.366 503.281 6.75664Z" fill="black" stroke="black"/>
<path d="M458.414 297.362C448.206 302.301 439.479 300.655 435.775 299.831C431.165 299.142 423.426 295.154 420.133 293.246C433.717 285.288 462.86 268.137 470.763 263.197C478.666 258.258 475.153 250.437 472.409 247.144C474.33 248.516 478.995 251.178 482.288 250.848C485.581 250.519 482.563 245.223 480.642 242.616C462.667 218.193 426.39 169.018 425.073 167.701C423.755 166.383 410.803 154.254 404.491 148.354C402.516 144.403 397.905 140.396 395.847 138.887L341.102 107.192C390.222 78.9273 492.414 20.0927 508.22 10.8724C524.027 1.652 542.248 7.85378 549.383 12.1072C597.817 39.9604 700.201 98.8773 722.264 111.72C744.327 124.563 735.299 136.829 728.027 141.357L458.414 297.362Z" fill="white" stroke="#020202" stroke-width="2"/>
<path d="M464.176 59.0321L360.447 119.129C396.396 159.88 471.009 242.122 481.876 245.086C492.743 248.049 503.143 244.948 506.985 243.028C549.931 217.919 639.033 165.807 651.876 158.233C664.719 150.659 657.227 141.631 651.876 138.064C609.205 113.504 520.239 62.2428 505.75 53.681C491.261 45.1193 471.997 53.681 464.176 59.0321Z" fill="#D0F500" stroke="#020202" stroke-width="2"/>
<path d="M470.352 246.32L394.613 201.454C381.853 238.362 355.427 314.65 351.804 324.529C348.182 334.408 339.044 335.231 334.928 334.408C348.1 339.677 361.82 335.78 367.034 333.173L412.313 306.417C421.533 311.686 431.522 313.552 435.364 313.827V299.831C428.778 298.844 421.368 295.029 418.487 293.245C431.659 285.699 460.226 269.124 469.117 263.197C478.008 257.27 473.645 249.476 470.352 246.32Z" fill="black" stroke="#020202" stroke-width="2"/>
<path d="M6.04233 334.408L149.287 250.437C163.281 242.616 177.687 245.468 183.451 248.79C226.535 273.625 316.076 325.188 329.577 332.761C343.079 340.335 335.934 350.873 329.577 354.577C286.494 379.686 197.282 431.551 185.098 438.137C172.914 444.723 158.891 440.881 153.403 438.137C147.555 434.771 140.868 430.924 133.644 426.767C120.304 419.092 105.129 410.363 90.0118 401.67C74.2839 392.626 58.6181 383.62 45.1449 375.879C26.2554 365.027 11.6757 356.662 7.2772 354.166C4.90335 352.819 3.31921 351.198 2.33617 349.47C-1.11337 343.405 2.83846 336.01 6.04233 334.408Z" fill="white"/>
<path d="M2.33617 349.47C-1.11337 343.405 2.83846 336.01 6.04233 334.408L149.287 250.437C163.281 242.616 177.687 245.468 183.451 248.79C226.535 273.625 316.076 325.188 329.577 332.761C343.079 340.335 335.934 350.873 329.577 354.577C286.494 379.686 197.282 431.551 185.098 438.137C172.914 444.723 158.891 440.881 153.403 438.137C147.555 434.771 140.868 430.924 133.644 426.767M2.33617 349.47C3.31921 351.198 4.90335 352.819 7.2772 354.166C11.6757 356.662 26.2554 365.027 45.1449 375.879M2.33617 349.47L69.019 310.534M133.644 426.767C120.304 419.092 105.129 410.363 90.0118 401.67M133.644 426.767L203.208 387.096M45.1449 375.879L112.651 336.466M45.1449 375.879C58.6181 383.62 74.2839 392.626 90.0118 401.67M90.0118 401.67L156.283 362.398" stroke="black" stroke-width="2"/>
<path d="M116.356 346.756C103.842 343.793 95.7744 331.252 93.3047 325.352L237.784 408.088L206.089 426.611C200.327 423.73 192.917 415.086 189.624 404.384C186.99 395.822 181.941 389.84 179.745 387.919C178.236 386.135 172.254 381.909 160.399 379.275C148.544 376.64 140.092 373.237 137.348 371.865C135.153 370.768 130.186 366.761 127.881 359.517C125.576 352.272 119.237 347.58 116.356 346.756Z" fill="black" stroke="black" stroke-width="2"/>
<path d="M578.197 147.943C578.197 176.36 538.575 199.396 489.698 199.396C440.822 199.396 401.199 176.36 401.199 147.943C401.199 119.526 440.822 96.4902 489.698 96.4902C538.575 96.4902 578.197 119.526 578.197 147.943ZM418.136 147.943C418.136 170.921 450.175 189.549 489.698 189.549C529.221 189.549 561.26 170.921 561.26 147.943C561.26 124.965 529.221 106.337 489.698 106.337C450.175 106.337 418.136 124.965 418.136 147.943Z" fill="#141414"/>
<path d="M429.189 172.64C425.567 167.701 410.666 153.843 403.668 147.531C406.961 153.129 406.413 163.036 405.727 167.289L394.201 201.042L469.117 245.086C472.684 247.418 480.313 251.754 482.288 250.437C484.264 249.12 482.014 244.949 480.642 243.028C465 221.623 432.811 177.58 429.189 172.64Z" fill="#777E87" stroke="#020202" stroke-width="2"/>
<path d="M331.635 333.584L182.216 247.555C171.02 241.109 169.318 225.739 171.514 219.153C187.155 172.228 219.591 75.1677 224.201 62.3251C228.043 51.6231 241.077 49.6104 246.017 52.4461C290.473 77.9667 382.511 130.901 395.025 138.475C407.538 146.049 407.373 160.566 405.727 166.877C389.811 214.214 356.826 311.933 352.216 324.117C347.606 336.301 336.574 335.505 331.635 333.584Z" fill="#C2C8CF" stroke="black" stroke-width="2"/>
<path d="M240.254 258.258C261.246 260.316 266.186 303.125 270.714 325.764C272.175 333.068 275.649 340.797 279.769 347.95C285.866 358.534 293.378 367.858 297.881 372.689L279.769 383.357L240.254 406.634L237.784 408.088L200.738 386.955L157.106 362.065L112.239 336.471L94.1279 326.139C100.754 324.458 108.037 323.675 112.239 323.4C113.048 323.347 113.743 323.312 114.297 323.294C120.471 323.294 126.646 331.444 133.232 321.236C139.818 311.028 145.306 296.95 147.227 291.188C149.63 286.381 153.446 285.477 157.106 286.611C161.595 288.001 165.851 292.457 166.985 296.539C173.769 315.088 187.955 341.286 200.738 331.596C204.502 328.743 208.144 322.779 211.44 312.592C225.929 267.807 236.686 257.709 240.254 258.258Z" fill="#D0F500"/>
<path d="M56.6699 304.771L94.1276 326.139M94.1276 326.139L112.239 336.471M94.1276 326.139C100.754 324.458 108.037 323.675 112.239 323.4M240.254 258.258C261.246 260.316 266.186 303.125 270.714 325.764C272.175 333.068 275.649 340.797 279.769 347.95M240.254 258.258C236.686 257.709 225.929 267.807 211.44 312.592C208.144 322.779 204.502 328.743 200.738 331.596M240.254 258.258V406.634M279.769 347.95C285.866 358.534 293.378 367.858 297.881 372.689L279.769 383.357M279.769 347.95V383.357M200.738 331.596V386.955M200.738 331.596C187.955 341.286 173.769 315.088 166.985 296.539C165.851 292.457 161.595 288.001 157.106 286.611M240.254 406.634L237.784 408.088L200.738 386.955M240.254 406.634L279.769 383.357M112.239 336.471L157.106 362.065M112.239 336.471V323.4M112.239 323.4C113.048 323.347 113.743 323.312 114.297 323.294C120.471 323.294 126.646 331.444 133.232 321.236C139.818 311.028 145.306 296.95 147.227 291.188C149.63 286.381 153.446 285.477 157.106 286.611M200.738 386.955L157.106 362.065M157.106 362.065V286.611" stroke="black" stroke-width="2"/>
<path d="M194.474 199.491C195.854 194.261 201.396 191.315 206.503 193.097C211.129 194.711 213.704 199.643 212.383 204.361L208.941 216.655C207.435 222.033 201.518 224.833 196.405 222.588C192.264 220.77 190.063 216.208 191.217 211.835L194.474 199.491Z" fill="black"/>
<path d="M219.115 195.995C220.761 190.608 226.584 187.699 231.88 189.618C236.755 191.385 239.423 196.631 237.978 201.611L230.346 227.932C228.63 233.847 222.042 236.837 216.461 234.232C211.929 232.117 209.645 226.987 211.107 222.204L219.115 195.995Z" fill="black"/>
<path d="M243.887 195.227C245.502 190.005 251.121 187.161 256.285 188.95C261.193 190.651 263.879 195.926 262.368 200.895L250.692 239.3C249.117 244.479 243.628 247.389 238.457 245.784C233.31 244.187 230.431 238.722 232.024 233.574L243.887 195.227Z" fill="black"/>
<path d="M275.955 171.632C277.879 165.621 284.896 162.963 290.32 166.191C294.236 168.522 296.032 173.242 294.655 177.587L271.278 251.367C269.458 257.112 262.98 259.923 257.541 257.327C253.062 255.189 250.85 250.071 252.363 245.344L275.955 171.632Z" fill="black"/>
<path d="M290.614 201.363C292.628 195.082 300.023 192.383 305.61 195.891C309.535 198.355 311.28 203.174 309.843 207.581L291.591 263.554C289.568 269.758 282.225 272.373 276.736 268.845C272.942 266.406 271.26 261.721 272.638 257.426L290.614 201.363Z" fill="black"/>
<path d="M313.513 206.817C315.547 200.453 323.206 197.933 328.621 201.848C332.081 204.348 333.529 208.797 332.205 212.856L311.811 275.324C309.685 281.837 301.625 284.102 296.417 279.65C293.475 277.134 292.327 273.098 293.506 269.41L313.513 206.817Z" fill="black"/>
<path d="M338.637 208.366C340.51 202.526 347.623 200.331 352.462 204.099C355.397 206.385 356.583 210.267 355.428 213.803L331.733 286.3C329.777 292.284 322.271 294.218 317.667 289.923C315.227 287.647 314.321 284.168 315.34 280.992L338.637 208.366Z" stroke="black" stroke-width="2"/>
<path d="M187.979 206.258C186.003 212.186 179.472 211.472 176.453 210.375L185.92 182.796C191.848 183.784 192.781 191.852 191.683 195.145L187.979 206.258Z" fill="black" stroke="black" stroke-width="2"/>
<path d="M241.488 265.121C245.126 265.121 248.074 262.173 248.074 258.535C248.074 254.898 245.126 251.949 241.488 251.949C237.851 251.949 234.902 254.898 234.902 258.535C234.902 262.173 237.851 265.121 241.488 265.121Z" fill="black"/>
<path d="M480.24 185.006C486.497 185.335 488.061 188.161 488.061 189.533C488.061 192.168 482.847 192.826 480.24 192.826C463.775 193.485 444.841 186.789 437.432 183.359C436.471 182.947 434.057 181.054 432.081 176.773C430.105 172.492 422.202 164.562 418.497 161.131L402.444 145.901C399.809 132.729 408.881 118.323 414.369 113.795C437.009 106.386 484.181 91.4848 491.754 91.1555C501.222 90.7439 548.982 100.211 550.216 108.444C551.204 115.03 542.67 113.658 538.279 112.148C533.752 108.993 518.357 102.352 493.001 101.035C467.645 99.7173 444.841 108.993 436.608 113.795C425.906 119.558 407.63 136.187 420.143 156.604C435.785 182.124 472.419 184.594 480.24 185.006Z" fill="#6D8510" stroke="black"/>
<path d="M541.151 109.251C552.347 108.922 550.755 104.449 548.56 102.253C539.779 98.5487 516.042 90.6455 491.345 88.6697C466.647 86.6939 442.087 95.8045 432.894 100.607C425.073 104.449 410.749 113.038 416.017 116.66C421.286 120.282 426.445 118.444 428.366 117.072L433.717 112.132C438.657 107.604 456.192 99.7012 481.877 97.7254C513.984 95.2557 527.155 103.077 533.33 105.958C538.269 108.263 537.035 108.016 541.151 109.251Z" fill="#D0F500" stroke="black"/>
<path d="M546.089 96.0782C554.324 100.194 550.616 102.801 547.735 103.899C546.088 104.585 541.89 105.545 538.267 103.899C533.74 101.841 525.919 98.5479 519.333 96.9014C513.433 95.6665 500.91 93.6084 497.928 93.6084C497.517 93.6084 495.05 93.6084 493.401 92.3736C487.064 87.628 492.166 84.8271 495.047 84.5527C522.214 84.9644 536.032 91.0515 546.089 96.0782Z" fill="white" stroke="black"/>
<path d="M620.931 133.236C621.664 133.106 622.419 133.228 623.074 133.584L640.494 143.038C643.495 144.667 642.603 149.193 639.207 149.561C638.481 149.64 637.747 149.488 637.112 149.127L619.88 139.335C617.201 137.813 617.897 133.774 620.931 133.236Z" fill="black"/>
<path d="M702.352 122.239C700.643 121.892 699.744 124.189 701.235 125.094L709.548 130.14C709.694 130.229 709.855 130.292 710.022 130.327C711.67 130.67 712.553 128.462 711.123 127.574L702.865 122.442C702.708 122.345 702.533 122.276 702.352 122.239Z" fill="black"/>
<path d="M708.114 118.123C706.404 117.776 705.506 120.073 706.997 120.978L715.309 126.024C715.456 126.113 715.616 126.176 715.784 126.211C717.431 126.554 718.315 124.346 716.885 123.458L708.625 118.326C708.468 118.228 708.295 118.16 708.114 118.123Z" fill="black"/>
<path d="M745.726 129.885V126.127C745.847 127.456 745.841 128.71 745.726 129.885V145.062C745.726 146.296 742.269 149.919 733.378 154.529L471.586 305.594C462.53 310.946 444.501 316.791 433.305 313.827V303.125C438.107 303.811 449.523 304.524 456.767 301.89C464.012 299.255 648.309 193.221 739.552 140.534C742.577 138.787 745.218 135.117 745.726 129.885Z" fill="#777E87"/>
<path d="M745.726 126.127V145.062C745.726 146.296 742.269 149.919 733.378 154.529L471.586 305.594C462.53 310.946 444.501 316.791 433.305 313.827V303.125C438.107 303.811 449.523 304.524 456.767 301.89C464.012 299.255 648.309 193.221 739.552 140.534C743.257 138.395 746.385 133.372 745.726 126.127Z" stroke="black" stroke-width="2"/>
<path d="M369.092 280.074L412.695 305.594M371.562 272.665L417.095 299.008C419.362 300.243 424.249 302.301 425.896 302.301" stroke="#C2C8CF" stroke-opacity="0.5" stroke-width="0.5"/>
<path d="M225.755 102.592L226.717 100.445L227.68 98.2979L229.821 99.2579L231.974 100.223L231.011 102.37L230.049 104.517L227.896 103.552L225.755 102.592ZM228.438 103.795L229.401 101.648L230.363 99.501L232.505 100.461L234.658 101.426L233.695 103.573L232.732 105.72L230.58 104.755L228.438 103.795ZM233.806 106.201L234.769 104.054L235.731 101.907L237.873 102.867L240.025 103.832L239.063 105.979L238.1 108.127L235.947 107.162L233.806 106.201ZM224.274 98.705L225.236 96.558L226.199 94.4109L228.34 95.3709L230.493 96.336L229.53 98.483L228.568 100.63L226.415 99.665L224.274 98.705ZM232.325 102.315L233.288 100.167L234.25 98.0204L236.392 98.9804L238.545 99.9454L237.582 102.092L236.619 104.24L234.467 103.275L232.325 102.315ZM235.009 103.518L235.972 101.371L236.934 99.2235L239.076 100.184L241.228 101.149L240.266 103.296L239.303 105.443L237.151 104.478L235.009 103.518ZM225.477 96.0212L226.44 93.8741L227.402 91.7271L229.544 92.6871L231.696 93.6521L230.734 95.7992L229.771 97.9463L227.618 96.9812L225.477 96.0212ZM236.212 100.834L237.175 98.6868L238.137 96.5397L240.279 97.4997L242.431 98.4648L241.469 100.612L240.506 102.759L238.354 101.794L236.212 100.834ZM226.68 93.3374L227.643 91.1903L228.605 89.0432L230.747 90.0033L232.899 90.9683L231.937 93.1154L230.974 95.2624L228.822 94.2974L226.68 93.3374ZM237.415 98.15L238.378 96.0029L239.341 93.8559L241.482 94.8159L243.635 95.7809L242.672 97.928L241.71 100.075L239.557 99.11L237.415 98.15ZM227.883 90.6535L228.846 88.5065L229.808 86.3594L231.95 87.3194L234.102 88.2845L233.14 90.4315L232.177 92.5786L230.025 91.6136L227.883 90.6535ZM238.619 95.4662L239.581 93.3191L240.544 91.1721L242.685 92.1321L244.838 93.0971L243.875 95.2442L242.913 97.3912L240.76 96.4262L238.619 95.4662ZM229.086 87.9697L230.049 85.8227L231.012 83.6756L233.153 84.6356L235.306 85.6006L234.343 87.7477L233.381 89.8948L231.228 88.9297L229.086 87.9697ZM239.822 92.7824L240.784 90.6353L241.747 88.4882L243.888 89.4482L246.041 90.4133L245.078 92.5603L244.116 94.7074L241.963 93.7424L239.822 92.7824ZM230.29 85.2859L231.252 83.1388L232.215 80.9918L234.356 81.9518L236.509 82.9168L235.546 85.0639L234.584 87.2109L232.431 86.2459L230.29 85.2859ZM241.025 90.0985L241.987 87.9515L242.95 85.8044L245.091 86.7644L247.244 87.7295L246.282 89.8765L245.319 92.0236L243.166 91.0585L241.025 90.0985ZM231.493 82.6021L232.455 80.455L233.418 78.3079L235.559 79.268L237.712 80.233L236.749 82.3801L235.787 84.5271L233.634 83.5621L231.493 82.6021ZM242.228 87.4147L243.191 85.2676L244.153 83.1206L246.295 84.0806L248.447 85.0456L247.485 87.1927L246.522 89.3397L244.37 88.3747L242.228 87.4147ZM244.557 111.021L245.52 108.874L246.482 106.727L248.624 107.687L250.776 108.652L249.814 110.799L248.851 112.946L246.699 111.981L244.557 111.021ZM247.241 112.224L248.203 110.077L249.166 107.93L251.307 108.89L253.46 109.855L252.498 112.002L251.535 114.149L249.382 113.184L247.241 112.224ZM249.925 113.427L250.887 111.28L251.85 109.133L253.991 110.093L256.144 111.058L255.181 113.205L254.219 115.353L252.066 114.388L249.925 113.427ZM243.076 107.134L244.039 104.987L245.001 102.84L247.143 103.8L249.296 104.765L248.333 106.912L247.37 109.059L245.218 108.094L243.076 107.134ZM253.812 111.947L254.774 109.8L255.737 107.653L257.878 108.613L260.031 109.578L259.068 111.725L258.106 113.872L255.953 112.907L253.812 111.947ZM244.28 104.45L245.242 102.303L246.205 100.156L248.346 101.116L250.499 102.081L249.536 104.228L248.574 106.375L246.421 105.41L244.28 104.45ZM255.015 109.263L255.977 107.116L256.94 104.969L259.081 105.929L261.234 106.894L260.271 109.041L259.309 111.188L257.156 110.223L255.015 109.263ZM253.534 105.376L254.497 103.229L255.459 101.082L257.601 102.042L259.753 103.007L258.791 105.154L257.828 107.301L255.676 106.336L253.534 105.376ZM251.452 102.831L252.414 100.684L253.377 98.5368L255.518 99.4968L257.671 100.462L256.709 102.609L255.746 104.756L253.593 103.791L251.452 102.831ZM249.37 100.286L250.332 98.1388L251.295 95.9917L253.436 96.9518L255.589 97.9168L254.626 100.064L253.664 102.211L251.511 101.246L249.37 100.286ZM247.889 96.3989L248.852 94.2518L249.814 92.1047L251.956 93.0648L254.108 94.0298L253.146 96.1769L252.183 98.3239L250.03 97.3589L247.889 96.3989ZM258.624 101.212L259.587 99.0644L260.549 96.9174L262.691 97.8774L264.843 98.8424L263.881 100.989L262.918 103.137L260.766 102.172L258.624 101.212ZM249.092 93.715L250.055 91.568L251.017 89.4209L253.159 90.3809L255.311 91.346L254.349 93.493L253.386 95.6401L251.234 94.6751L249.092 93.715ZM259.827 98.5277L260.79 96.3806L261.753 94.2336L263.894 95.1936L266.047 96.1586L265.084 98.3057L264.122 100.453L261.969 99.4877L259.827 98.5277ZM252.979 92.2344L253.942 90.0873L254.904 87.9403L257.046 88.9003L259.198 89.8653L258.236 92.0124L257.273 94.1594L255.121 93.1944L252.979 92.2344ZM255.663 93.4375L256.625 91.2905L257.588 89.1434L259.729 90.1034L261.882 91.0685L260.92 93.2155L259.957 95.3626L257.804 94.3976L255.663 93.4375ZM258.347 94.6407L259.309 92.4936L260.272 90.3466L262.413 91.3066L264.566 92.2716L263.603 94.4187L262.641 96.5657L260.488 95.6007L258.347 94.6407ZM263.36 119.45L264.322 117.303L265.285 115.156L267.426 116.116L269.579 117.081L268.616 119.228L267.654 121.375L265.501 120.41L263.36 119.45ZM266.043 120.653L267.006 118.506L267.968 116.359L270.11 117.319L272.263 118.284L271.3 120.431L270.338 122.579L268.185 121.614L266.043 120.653ZM268.727 121.857L269.69 119.71L270.652 117.563L272.794 118.523L274.946 119.488L273.984 121.635L273.021 123.782L270.869 122.817L268.727 121.857ZM261.879 115.563L262.841 113.416L263.804 111.269L265.945 112.229L268.098 113.194L267.136 115.341L266.173 117.488L264.02 116.523L261.879 115.563ZM272.614 120.376L273.577 118.229L274.539 116.082L276.681 117.042L278.833 118.007L277.871 120.154L276.908 122.301L274.756 121.336L272.614 120.376ZM263.082 112.88L264.045 110.732L265.007 108.585L267.149 109.545L269.301 110.51L268.339 112.658L267.376 114.805L265.224 113.84L263.082 112.88ZM264.285 110.196L265.248 108.049L266.21 105.902L268.352 106.862L270.504 107.827L269.542 109.974L268.579 112.121L266.427 111.156L264.285 110.196ZM265.488 107.512L266.451 105.365L267.413 103.218L269.555 104.178L271.708 105.143L270.745 107.29L269.782 109.437L267.63 108.472L265.488 107.512ZM268.172 108.715L269.135 106.568L270.097 104.421L272.239 105.381L274.391 106.346L273.429 108.493L272.466 110.64L270.314 109.675L268.172 108.715ZM270.856 109.918L271.819 107.771L272.781 105.624L274.923 106.584L277.075 107.549L276.113 109.696L275.15 111.843L272.997 110.878L270.856 109.918ZM273.54 111.121L274.502 108.974L275.465 106.827L277.606 107.787L279.759 108.752L278.796 110.899L277.834 113.046L275.681 112.081L273.54 111.121ZM276.224 112.324L277.186 110.177L278.149 108.03L280.29 108.99L282.443 109.955L281.48 112.102L280.518 114.25L278.365 113.285L276.224 112.324ZM266.692 104.828L267.654 102.681L268.617 100.534L270.758 101.494L272.911 102.459L271.948 104.606L270.986 106.753L268.833 105.788L266.692 104.828ZM277.427 109.641L278.389 107.494L279.352 105.347L281.493 106.307L283.646 107.272L282.683 109.419L281.721 111.566L279.568 110.601L277.427 109.641ZM267.895 102.144L268.857 99.9971L269.82 97.8501L271.961 98.8101L274.114 99.7751L273.151 101.922L272.189 104.069L270.036 103.104L267.895 102.144ZM278.63 106.957L279.593 104.81L280.555 102.663L282.697 103.623L284.849 104.588L283.887 106.735L282.924 108.882L280.771 107.917L278.63 106.957ZM271.782 100.664L272.744 98.5165L273.707 96.3694L275.848 97.3294L278.001 98.2945L277.038 100.442L276.076 102.589L273.923 101.624L271.782 100.664ZM274.465 101.867L275.428 99.7196L276.391 97.5726L278.532 98.5326L280.685 99.4976L279.722 101.645L278.76 103.792L276.607 102.827L274.465 101.867ZM277.149 103.07L278.112 100.923L279.074 98.7757L281.216 99.7357L283.368 100.701L282.406 102.848L281.443 104.995L279.291 104.03L277.149 103.07ZM278.142 126.077L279.104 123.93L280.067 121.783L282.208 122.743L284.361 123.708L283.398 125.855L282.436 128.002L280.283 127.037L278.142 126.077ZM279.345 123.393L280.307 121.246L281.27 119.099L283.411 120.059L285.564 121.024L284.601 123.171L283.639 125.318L281.486 124.353L279.345 123.393ZM280.548 120.709L281.51 118.562L282.473 116.415L284.614 117.375L286.767 118.34L285.805 120.487L284.842 122.634L282.689 121.669L280.548 120.709ZM281.751 118.026L282.714 115.879L283.676 113.731L285.818 114.692L287.97 115.657L287.008 117.804L286.045 119.951L283.893 118.986L281.751 118.026ZM282.954 115.342L283.917 113.195L284.879 111.048L287.021 112.008L289.173 112.973L288.211 115.12L287.248 117.267L285.096 116.302L282.954 115.342ZM284.157 112.658L285.12 110.511L286.082 108.364L288.224 109.324L290.377 110.289L289.414 112.436L288.451 114.583L286.299 113.618L284.157 112.658ZM292.209 116.267L293.171 114.12L294.134 111.973L296.275 112.933L298.428 113.898L297.465 116.045L296.503 118.192L294.35 117.227L292.209 116.267ZM285.361 109.974L286.323 107.827L287.286 105.68L289.427 106.64L291.58 107.605L290.617 109.752L289.655 111.899L287.502 110.934L285.361 109.974ZM293.412 113.584L294.375 111.437L295.337 109.289L297.479 110.249L299.631 111.215L298.669 113.362L297.706 115.509L295.553 114.544L293.412 113.584ZM289.248 108.493L290.21 106.346L291.173 104.199L293.314 105.159L295.467 106.124L294.504 108.271L293.542 110.419L291.389 109.453L289.248 108.493ZM291.931 109.697L292.894 107.55L293.856 105.402L295.998 106.363L298.151 107.328L297.188 109.475L296.225 111.622L294.073 110.657L291.931 109.697Z" fill="black"/>
<path d="M527.055 31.46C533.42 31.46 538.58 28.3271 538.58 24.4624C538.58 20.5978 533.42 17.4648 527.055 17.4648C520.689 17.4648 515.529 20.5978 515.529 24.4624C515.529 28.3271 520.689 31.46 527.055 31.46Z" fill="black"/>
</svg>
