<svg id="visual" viewBox="0 0 960 540" width="960" height="540" xmlns="http://www.w3.org/2000/svg" xmlns:xlink="http://www.w3.org/1999/xlink" version="1.1"><rect x="0" y="0" width="960" height="540" fill="#EbE9ea"></rect><path d="M717 0L735 0L735 27L725 27L725 54L715 54L715 81L766 81L766 108L610 108L610 135L759 135L759 162L639 162L639 189L719 189L719 216L654 216L654 243L753 243L753 270L727 270L727 297L638 297L638 324L763 324L763 351L546 351L546 378L581 378L581 405L621 405L621 432L741 432L741 459L712 459L712 486L676 486L676 513L671 513L671 540L0 540L0 513L0 513L0 486L0 486L0 459L0 459L0 432L0 432L0 405L0 405L0 378L0 378L0 351L0 351L0 324L0 324L0 297L0 297L0 270L0 270L0 243L0 243L0 216L0 216L0 189L0 189L0 162L0 162L0 135L0 135L0 108L0 108L0 81L0 81L0 54L0 54L0 27L0 27L0 0L0 0Z" fill="#a66cfe"></path><path d="M513 0L499 0L499 27L463 27L463 54L454 54L454 81L625 81L625 108L449 108L449 135L553 135L553 162L615 162L615 189L479 189L479 216L512 216L512 243L447 243L447 270L508 270L508 297L433 297L433 324L594 324L594 351L421 351L421 378L601 378L601 405L490 405L490 432L513 432L513 459L590 459L590 486L526 486L526 513L461 513L461 540L0 540L0 513L0 513L0 486L0 486L0 459L0 459L0 432L0 432L0 405L0 405L0 378L0 378L0 351L0 351L0 324L0 324L0 297L0 297L0 270L0 270L0 243L0 243L0 216L0 216L0 189L0 189L0 162L0 162L0 135L0 135L0 108L0 108L0 81L0 81L0 54L0 54L0 27L0 27L0 0L0 0Z" fill="#8b61d6"></path><path d="M446 0L526 0L526 27L345 27L345 54L478 54L478 81L345 81L345 108L427 108L427 135L504 135L504 162L453 162L453 189L349 189L349 216L503 216L503 243L462 243L462 270L388 270L388 297L472 297L472 324L429 324L429 351L314 351L314 378L394 378L394 405L409 405L409 432L425 432L425 459L508 459L508 486L417 486L417 513L511 513L511 540L0 540L0 513L0 513L0 486L0 486L0 459L0 459L0 432L0 432L0 405L0 405L0 378L0 378L0 351L0 351L0 324L0 324L0 297L0 297L0 270L0 270L0 243L0 243L0 216L0 216L0 189L0 189L0 162L0 162L0 135L0 135L0 108L0 108L0 81L0 81L0 54L0 54L0 27L0 27L0 0L0 0Z" fill="#7355ae"></path><path d="M239 0L372 0L372 27L368 27L368 54L199 54L199 81L236 81L236 108L211 108L211 135L381 135L381 162L362 162L362 189L202 189L202 216L307 216L307 243L232 243L232 270L377 270L377 297L293 297L293 324L280 324L280 351L240 351L240 378L307 378L307 405L319 405L319 432L194 432L194 459L299 459L299 486L301 486L301 513L333 513L333 540L0 540L0 513L0 513L0 486L0 486L0 459L0 459L0 432L0 432L0 405L0 405L0 378L0 378L0 351L0 351L0 324L0 324L0 297L0 297L0 270L0 270L0 243L0 243L0 216L0 216L0 189L0 189L0 162L0 162L0 135L0 135L0 108L0 108L0 81L0 81L0 54L0 54L0 27L0 27L0 0L0 0Z" fill="#5c4987"></path><path d="M179 0L156 0L156 27L194 27L194 54L194 54L194 81L138 81L138 108L137 108L137 135L124 135L124 162L165 162L165 189L221 189L221 216L205 216L205 243L166 243L166 270L169 270L169 297L136 297L136 324L193 324L193 351L133 351L133 378L139 378L139 405L239 405L239 432L147 432L147 459L123 459L123 486L180 486L180 513L234 513L234 540L0 540L0 513L0 513L0 486L0 486L0 459L0 459L0 432L0 432L0 405L0 405L0 378L0 378L0 351L0 351L0 324L0 324L0 297L0 297L0 270L0 270L0 243L0 243L0 216L0 216L0 189L0 189L0 162L0 162L0 135L0 135L0 108L0 108L0 81L0 81L0 54L0 54L0 27L0 27L0 0L0 0Z" fill="#473c61"></path></svg>