<svg id="visual" viewBox="0 0 960 540" width="960" height="540" xmlns="http://www.w3.org/2000/svg" xmlns:xlink="http://www.w3.org/1999/xlink" version="1.1"><path d="M757 540L755.5 531.8C754 523.7 751 507.3 743 491C735 474.7 722 458.3 726.8 442C731.7 425.7 754.3 409.3 748 393C741.7 376.7 706.3 360.3 719 344C731.7 327.7 792.3 311.3 813.2 294.8C834 278.3 815 261.7 815 245.2C815 228.7 834 212.3 834 196C834 179.7 815 163.3 799 147C783 130.7 770 114.3 762 98C754 81.7 751 65.3 770.3 49C789.7 32.7 831.3 16.3 852.2 8.2L873 0L960 0L960 8.2C960 16.3 960 32.7 960 49C960 65.3 960 81.7 960 98C960 114.3 960 130.7 960 147C960 163.3 960 179.7 960 196C960 212.3 960 228.7 960 245.2C960 261.7 960 278.3 960 294.8C960 311.3 960 327.7 960 344C960 360.3 960 376.7 960 393C960 409.3 960 425.7 960 442C960 458.3 960 474.7 960 491C960 507.3 960 523.7 960 531.8L960 540Z" fill="#473c61"></path><path d="M700 540L680.8 531.8C661.7 523.7 623.3 507.3 613.7 491C604 474.7 623 458.3 629.3 442C635.7 425.7 629.3 409.3 623 393C616.7 376.7 610.3 360.3 626.3 344C642.3 327.7 680.7 311.3 685.5 294.8C690.3 278.3 661.7 261.7 661.7 245.2C661.7 228.7 690.3 212.3 695 196C699.7 179.7 680.3 163.3 669.2 147C658 130.7 655 114.3 658.3 98C661.7 81.7 671.3 65.3 692.2 49C713 32.7 745 16.3 761 8.2L777 0L874 0L853.2 8.2C832.3 16.3 790.7 32.7 771.3 49C752 65.3 755 81.7 763 98C771 114.3 784 130.7 800 147C816 163.3 835 179.7 835 196C835 212.3 816 228.7 816 245.2C816 261.7 835 278.3 814.2 294.8C793.3 311.3 732.7 327.7 720 344C707.3 360.3 742.7 376.7 749 393C755.3 409.3 732.7 425.7 727.8 442C723 458.3 736 474.7 744 491C752 507.3 755 523.7 756.5 531.8L758 540Z" fill="#5c4987"></path><path d="M393 540L370.5 531.8C348 523.7 303 507.3 299.7 491C296.3 474.7 334.7 458.3 352.3 442C370 425.7 367 409.3 373.5 393C380 376.7 396 360.3 394.3 344C392.7 327.7 373.3 311.3 379.7 294.8C386 278.3 418 261.7 454.8 245.2C491.7 228.7 533.3 212.3 535 196C536.7 179.7 498.3 163.3 455.2 147C412 130.7 364 114.3 354.3 98C344.7 81.7 373.3 65.3 414.8 49C456.3 32.7 510.7 16.3 537.8 8.2L565 0L778 0L762 8.2C746 16.3 714 32.7 693.2 49C672.3 65.3 662.7 81.7 659.3 98C656 114.3 659 130.7 670.2 147C681.3 163.3 700.7 179.7 696 196C691.3 212.3 662.7 228.7 662.7 245.2C662.7 261.7 691.3 278.3 686.5 294.8C681.7 311.3 643.3 327.7 627.3 344C611.3 360.3 617.7 376.7 624 393C630.3 409.3 636.7 425.7 630.3 442C624 458.3 605 474.7 614.7 491C624.3 507.3 662.7 523.7 681.8 531.8L701 540Z" fill="#7355ae"></path><path d="M287 540L272.7 531.8C258.3 523.7 229.7 507.3 210.5 491C191.3 474.7 181.7 458.3 186.3 442C191 425.7 210 409.3 235.5 393C261 376.7 293 360.3 285 344C277 327.7 229 311.3 232.3 294.8C235.7 278.3 290.3 261.7 333.7 245.2C377 228.7 409 212.3 415.3 196C421.7 179.7 402.3 163.3 357.5 147C312.7 130.7 242.3 114.3 215.2 98C188 81.7 204 65.3 237.5 49C271 32.7 322 16.3 347.5 8.2L373 0L566 0L538.8 8.2C511.7 16.3 457.3 32.7 415.8 49C374.3 65.3 345.7 81.7 355.3 98C365 114.3 413 130.7 456.2 147C499.3 163.3 537.7 179.7 536 196C534.3 212.3 492.7 228.7 455.8 245.2C419 261.7 387 278.3 380.7 294.8C374.3 311.3 393.7 327.7 395.3 344C397 360.3 381 376.7 374.5 393C368 409.3 371 425.7 353.3 442C335.7 458.3 297.3 474.7 300.7 491C304 507.3 349 523.7 371.5 531.8L394 540Z" fill="#8b61d6"></path><path d="M0 540L0 531.8C0 523.7 0 507.3 0 491C0 474.7 0 458.3 0 442C0 425.7 0 409.3 0 393C0 376.7 0 360.3 0 344C0 327.7 0 311.3 0 294.8C0 278.3 0 261.7 0 245.2C0 228.7 0 212.3 0 196C0 179.7 0 163.3 0 147C0 130.7 0 114.3 0 98C0 81.7 0 65.3 0 49C0 32.7 0 16.3 0 8.2L0 0L374 0L348.5 8.2C323 16.3 272 32.7 238.5 49C205 65.3 189 81.7 216.2 98C243.3 114.3 313.7 130.7 358.5 147C403.3 163.3 422.7 179.7 416.3 196C410 212.3 378 228.7 334.7 245.2C291.3 261.7 236.7 278.3 233.3 294.8C230 311.3 278 327.7 286 344C294 360.3 262 376.7 236.5 393C211 409.3 192 425.7 187.3 442C182.7 458.3 192.3 474.7 211.5 491C230.7 507.3 259.3 523.7 273.7 531.8L288 540Z" fill="#a66cfe"></path></svg>