<svg id="visual" viewBox="0 0 960 540" width="960" height="540" xmlns="http://www.w3.org/2000/svg" xmlns:xlink="http://www.w3.org/1999/xlink" version="1.1"><path d="M0 114L14.5 115C29 116 58 118 87.2 122.5C116.3 127 145.7 134 174.8 131.3C204 128.7 233 116.3 262 120C291 123.7 320 143.3 349 136C378 128.7 407 94.3 436.2 82.7C465.3 71 494.7 82 523.8 82C553 82 582 71 611 71C640 71 669 82 698 91C727 100 756 107 785.2 111.5C814.3 116 843.7 118 872.8 107.3C902 96.7 931 73.3 945.5 61.7L960 50L960 0L945.5 0C931 0 902 0 872.8 0C843.7 0 814.3 0 785.2 0C756 0 727 0 698 0C669 0 640 0 611 0C582 0 553 0 523.8 0C494.7 0 465.3 0 436.2 0C407 0 378 0 349 0C320 0 291 0 262 0C233 0 204 0 174.8 0C145.7 0 116.3 0 87.2 0C58 0 29 0 14.5 0L0 0Z" fill="#a66cfe"></path><path d="M0 147L14.5 157.8C29 168.7 58 190.3 87.2 195.7C116.3 201 145.7 190 174.8 186.3C204 182.7 233 186.3 262 190C291 193.7 320 197.3 349 188.3C378 179.3 407 157.7 436.2 155C465.3 152.3 494.7 168.7 523.8 168.7C553 168.7 582 152.3 611 149.5C640 146.7 669 157.3 698 163.7C727 170 756 172 785.2 170.3C814.3 168.7 843.7 163.3 872.8 151.7C902 140 931 122 945.5 113L960 104L960 48L945.5 59.7C931 71.3 902 94.7 872.8 105.3C843.7 116 814.3 114 785.2 109.5C756 105 727 98 698 89C669 80 640 69 611 69C582 69 553 80 523.8 80C494.7 80 465.3 69 436.2 80.7C407 92.3 378 126.7 349 134C320 141.3 291 121.7 262 118C233 114.3 204 126.7 174.8 129.3C145.7 132 116.3 125 87.2 120.5C58 116 29 114 14.5 113L0 112Z" fill="#8b61d6"></path><path d="M0 320L14.5 332.5C29 345 58 370 87.2 371.7C116.3 373.3 145.7 351.7 174.8 341.8C204 332 233 334 262 330.5C291 327 320 318 349 318.8C378 319.7 407 330.3 436.2 326.7C465.3 323 494.7 305 523.8 284.3C553 263.7 582 240.3 611 239.5C640 238.7 669 260.3 698 284.7C727 309 756 336 785.2 341.3C814.3 346.7 843.7 330.3 872.8 306.8C902 283.3 931 252.7 945.5 237.3L960 222L960 102L945.5 111C931 120 902 138 872.8 149.7C843.7 161.3 814.3 166.7 785.2 168.3C756 170 727 168 698 161.7C669 155.3 640 144.7 611 147.5C582 150.3 553 166.7 523.8 166.7C494.7 166.7 465.3 150.3 436.2 153C407 155.7 378 177.3 349 186.3C320 195.3 291 191.7 262 188C233 184.3 204 180.7 174.8 184.3C145.7 188 116.3 199 87.2 193.7C58 188.3 29 166.7 14.5 155.8L0 145Z" fill="#7355ae"></path><path d="M0 379L14.5 387.2C29 395.3 58 411.7 87.2 422.5C116.3 433.3 145.7 438.7 174.8 435.8C204 433 233 422 262 407.5C291 393 320 375 349 379.5C378 384 407 411 436.2 409.3C465.3 407.7 494.7 377.3 523.8 353.2C553 329 582 311 611 307.3C640 303.7 669 314.3 698 339.5C727 364.7 756 404.3 785.2 419.7C814.3 435 843.7 426 872.8 407C902 388 931 359 945.5 344.5L960 330L960 220L945.5 235.3C931 250.7 902 281.3 872.8 304.8C843.7 328.3 814.3 344.7 785.2 339.3C756 334 727 307 698 282.7C669 258.3 640 236.7 611 237.5C582 238.3 553 261.7 523.8 282.3C494.7 303 465.3 321 436.2 324.7C407 328.3 378 317.7 349 316.8C320 316 291 325 262 328.5C233 332 204 330 174.8 339.8C145.7 349.7 116.3 371.3 87.2 369.7C58 368 29 343 14.5 330.5L0 318Z" fill="#5c4987"></path><path d="M0 541L14.5 541C29 541 58 541 87.2 541C116.3 541 145.7 541 174.8 541C204 541 233 541 262 541C291 541 320 541 349 541C378 541 407 541 436.2 541C465.3 541 494.7 541 523.8 541C553 541 582 541 611 541C640 541 669 541 698 541C727 541 756 541 785.2 541C814.3 541 843.7 541 872.8 541C902 541 931 541 945.5 541L960 541L960 328L945.5 342.5C931 357 902 386 872.8 405C843.7 424 814.3 433 785.2 417.7C756 402.3 727 362.7 698 337.5C669 312.3 640 301.7 611 305.3C582 309 553 327 523.8 351.2C494.7 375.3 465.3 405.7 436.2 407.3C407 409 378 382 349 377.5C320 373 291 391 262 405.5C233 420 204 431 174.8 433.8C145.7 436.7 116.3 431.3 87.2 420.5C58 409.7 29 393.3 14.5 385.2L0 377Z" fill="#473c61"></path></svg>